<svg width="217" height="195" fill="none" xmlns="http://www.w3.org/2000/svg">
  <path d="M1.383 2.611C.98 2.611.646 2.49.38 2.245A1.278 1.278 0 010 1.305C0 .936.127.627.381.383.646.127.98 0 1.383 0c.392 0 .715.127.97.382.253.244.38.552.38.924 0 .371-.127.684-.38.939-.255.244-.578.366-.97.366zM25.19 2.611c-.403 0-.736-.122-1.001-.366a1.278 1.278 0 01-.382-.94c0-.37.128-.679.382-.923C24.454.127 24.787 0 25.19 0c.392 0 .715.127.97.382.254.244.38.552.38.924 0 .371-.126.684-.38.939-.255.244-.578.366-.97.366zM48.997 2.611c-.402 0-.736-.122-1-.366a1.278 1.278 0 01-.382-.94c0-.37.127-.679.381-.923.265-.255.599-.382 1.001-.382.392 0 .716.127.97.382.254.244.381.552.381.924 0 .371-.127.684-.381.939-.254.244-.578.366-.97.366zM72.805 2.611c-.403 0-.737-.122-1.001-.366a1.278 1.278 0 01-.382-.94c0-.37.127-.679.382-.923.264-.255.598-.382 1-.382.393 0 .716.127.97.382.254.244.382.552.382.924 0 .371-.128.684-.382.939-.254.244-.577.366-.97.366zM96.612 2.611c-.402 0-.736-.122-1.001-.366a1.278 1.278 0 01-.381-.94c0-.37.127-.679.381-.923C95.876.127 96.21 0 96.612 0c.392 0 .715.127.97.382.254.244.381.552.381.924 0 .371-.127.684-.381.939-.255.244-.578.366-.97.366zM120.42 2.611c-.403 0-.737-.122-1.002-.366a1.279 1.279 0 01-.381-.94c0-.37.127-.679.381-.923.265-.255.599-.382 1.002-.382.392 0 .715.127.969.382.254.244.381.552.381.924 0 .371-.127.684-.381.939-.254.244-.577.366-.969.366zM144.227 2.611c-.403 0-.736-.122-1.001-.366a1.276 1.276 0 01-.382-.94c0-.37.127-.679.382-.923.265-.255.598-.382 1.001-.382.392 0 .715.127.969.382.255.244.382.552.382.924 0 .371-.127.684-.382.939-.254.244-.577.366-.969.366zM168.034 2.611c-.402 0-.736-.122-1.001-.366a1.279 1.279 0 01-.381-.94c0-.37.127-.679.381-.923.265-.255.599-.382 1.001-.382.392 0 .716.127.97.382.254.244.381.552.381.924 0 .371-.127.684-.381.939-.254.244-.578.366-.97.366zM191.842 2.611c-.403 0-.737-.122-1.001-.366a1.276 1.276 0 01-.382-.94c0-.37.127-.679.382-.923.264-.255.598-.382 1.001-.382.392 0 .715.127.969.382.254.244.382.552.382.924 0 .371-.128.684-.382.939-.254.244-.577.366-.969.366zM215.649 2.611c-.402 0-.736-.122-1.001-.366a1.279 1.279 0 01-.381-.94c0-.37.127-.679.381-.923.265-.255.599-.382 1.001-.382.392 0 .715.127.97.382.254.244.381.552.381.924 0 .371-.127.684-.381.939-.255.244-.578.366-.97.366zM1.383 21.85c-.403 0-.737-.122-1.002-.366a1.278 1.278 0 01-.381-.94c0-.371.127-.679.381-.923.265-.255.599-.382 1.002-.382.392 0 .715.127.97.382.253.244.38.552.38.924 0 .371-.127.684-.38.939-.255.244-.578.366-.97.366zM25.19 21.85c-.403 0-.736-.122-1.001-.366a1.278 1.278 0 01-.382-.94c0-.371.128-.679.382-.923.265-.255.598-.382 1.001-.382.392 0 .715.127.97.382.254.244.38.552.38.924 0 .371-.126.684-.38.939-.255.244-.578.366-.97.366zM48.997 21.85c-.402 0-.736-.122-1-.366a1.278 1.278 0 01-.382-.94c0-.371.127-.679.381-.923.265-.255.599-.382 1.001-.382.392 0 .716.127.97.382.254.244.381.552.381.924 0 .371-.127.684-.381.939-.254.244-.578.366-.97.366zM72.805 21.85c-.403 0-.737-.122-1.001-.366a1.278 1.278 0 01-.382-.94c0-.371.127-.679.382-.923.264-.255.598-.382 1-.382.393 0 .716.127.97.382.254.244.382.552.382.924 0 .371-.128.684-.382.939-.254.244-.577.366-.97.366zM96.612 21.85c-.402 0-.736-.122-1.001-.366a1.278 1.278 0 01-.381-.94c0-.371.127-.679.381-.923.265-.255.599-.382 1.001-.382.392 0 .715.127.97.382.254.244.381.552.381.924 0 .371-.127.684-.381.939-.255.244-.578.366-.97.366zM120.42 21.85c-.403 0-.737-.122-1.002-.366a1.279 1.279 0 01-.381-.94c0-.371.127-.679.381-.923.265-.255.599-.382 1.002-.382.392 0 .715.127.969.382.254.244.381.552.381.924 0 .371-.127.684-.381.939-.254.244-.577.366-.969.366zM144.227 21.85c-.403 0-.736-.122-1.001-.366a1.276 1.276 0 01-.382-.94c0-.371.127-.679.382-.923.265-.255.598-.382 1.001-.382.392 0 .715.127.969.382.255.244.382.552.382.924 0 .371-.127.684-.382.939-.254.244-.577.366-.969.366zM168.034 21.85c-.402 0-.736-.122-1.001-.366a1.279 1.279 0 01-.381-.94c0-.371.127-.679.381-.923.265-.255.599-.382 1.001-.382.392 0 .716.127.97.382.254.244.381.552.381.924 0 .371-.127.684-.381.939-.254.244-.578.366-.97.366zM191.842 21.85c-.403 0-.737-.122-1.001-.366a1.276 1.276 0 01-.382-.94c0-.371.127-.679.382-.923.264-.255.598-.382 1.001-.382.392 0 .715.127.969.382.254.244.382.552.382.924 0 .371-.128.684-.382.939-.254.244-.577.366-.969.366zM215.649 21.85c-.402 0-.736-.122-1.001-.366a1.279 1.279 0 01-.381-.94c0-.371.127-.679.381-.923.265-.255.599-.382 1.001-.382.392 0 .715.127.97.382.254.244.381.552.381.924 0 .371-.127.684-.381.939-.255.244-.578.366-.97.366zM1.383 41.089c-.403 0-.737-.122-1.002-.366a1.278 1.278 0 01-.381-.94c0-.371.127-.679.381-.923.265-.255.599-.382 1.002-.382.392 0 .715.127.97.382.253.244.38.552.38.923 0 .372-.127.685-.38.94-.255.244-.578.366-.97.366zM25.19 41.089c-.403 0-.736-.122-1.001-.366a1.278 1.278 0 01-.382-.94c0-.371.128-.679.382-.923.265-.255.598-.382 1.001-.382.392 0 .715.127.97.382.254.244.38.552.38.923 0 .372-.126.685-.38.94-.255.244-.578.366-.97.366zM48.997 41.089c-.402 0-.736-.122-1-.366a1.278 1.278 0 01-.382-.94c0-.371.127-.679.381-.923.265-.255.599-.382 1.001-.382.392 0 .716.127.97.382.254.244.381.552.381.923 0 .372-.127.685-.381.94-.254.244-.578.366-.97.366zM72.805 41.089c-.403 0-.737-.122-1.001-.366a1.278 1.278 0 01-.382-.94c0-.371.127-.679.382-.923.264-.255.598-.382 1-.382.393 0 .716.127.97.382.254.244.382.552.382.923 0 .372-.128.685-.382.94-.254.244-.577.366-.97.366zM96.612 41.089c-.402 0-.736-.122-1.001-.366a1.278 1.278 0 01-.381-.94c0-.371.127-.679.381-.923.265-.255.599-.382 1.001-.382.392 0 .715.127.97.382.254.244.381.552.381.923 0 .372-.127.685-.381.94-.255.244-.578.366-.97.366zM120.42 41.089c-.403 0-.737-.122-1.002-.366a1.279 1.279 0 01-.381-.94c0-.371.127-.679.381-.923.265-.255.599-.382 1.002-.382.392 0 .715.127.969.382.254.244.381.552.381.923 0 .372-.127.685-.381.94-.254.244-.577.366-.969.366zM144.227 41.089c-.403 0-.736-.122-1.001-.366a1.276 1.276 0 01-.382-.94c0-.371.127-.679.382-.923.265-.255.598-.382 1.001-.382.392 0 .715.127.969.382.255.244.382.552.382.923 0 .372-.127.685-.382.94-.254.244-.577.366-.969.366zM168.034 41.089c-.402 0-.736-.122-1.001-.366a1.279 1.279 0 01-.381-.94c0-.371.127-.679.381-.923.265-.255.599-.382 1.001-.382.392 0 .716.127.97.382.254.244.381.552.381.923 0 .372-.127.685-.381.94-.254.244-.578.366-.97.366zM191.842 41.089c-.403 0-.737-.122-1.001-.366a1.276 1.276 0 01-.382-.94c0-.371.127-.679.382-.923.264-.255.598-.382 1.001-.382.392 0 .715.127.969.382.254.244.382.552.382.923 0 .372-.128.685-.382.94-.254.244-.577.366-.969.366zM215.649 41.089c-.402 0-.736-.122-1.001-.366a1.279 1.279 0 01-.381-.94c0-.371.127-.679.381-.923.265-.255.599-.382 1.001-.382.392 0 .715.127.97.382.254.244.381.552.381.923 0 .372-.127.685-.381.94-.255.244-.578.366-.97.366zM1.383 60.328c-.403 0-.737-.122-1.002-.366a1.278 1.278 0 01-.381-.94c0-.371.127-.68.381-.923.265-.255.599-.382 1.002-.382.392 0 .715.127.97.382.253.244.38.552.38.923 0 .372-.127.685-.38.94-.255.244-.578.366-.97.366zM25.19 60.328c-.403 0-.736-.122-1.001-.366a1.278 1.278 0 01-.382-.94c0-.371.128-.68.382-.923.265-.255.598-.382 1.001-.382.392 0 .715.127.97.382.254.244.38.552.38.923 0 .372-.126.685-.38.94-.255.244-.578.366-.97.366zM48.997 60.328c-.402 0-.736-.122-1-.366a1.278 1.278 0 01-.382-.94c0-.371.127-.68.381-.923.265-.255.599-.382 1.001-.382.392 0 .716.127.97.382.254.244.381.552.381.923 0 .372-.127.685-.381.94-.254.244-.578.366-.97.366zM72.805 60.328c-.403 0-.737-.122-1.001-.366a1.278 1.278 0 01-.382-.94c0-.371.127-.68.382-.923.264-.255.598-.382 1-.382.393 0 .716.127.97.382.254.244.382.552.382.923 0 .372-.128.685-.382.94-.254.244-.577.366-.97.366zM96.612 60.328c-.402 0-.736-.122-1.001-.366a1.278 1.278 0 01-.381-.94c0-.371.127-.68.381-.923.265-.255.599-.382 1.001-.382.392 0 .715.127.97.382.254.244.381.552.381.923 0 .372-.127.685-.381.94-.255.244-.578.366-.97.366zM120.42 60.328c-.403 0-.737-.122-1.002-.366a1.279 1.279 0 01-.381-.94c0-.371.127-.68.381-.923.265-.255.599-.382 1.002-.382.392 0 .715.127.969.382.254.244.381.552.381.923 0 .372-.127.685-.381.94-.254.244-.577.366-.969.366zM144.227 60.328c-.403 0-.736-.122-1.001-.366a1.276 1.276 0 01-.382-.94c0-.371.127-.68.382-.923.265-.255.598-.382 1.001-.382.392 0 .715.127.969.382.255.244.382.552.382.923 0 .372-.127.685-.382.94-.254.244-.577.366-.969.366zM168.034 60.328c-.402 0-.736-.122-1.001-.366a1.279 1.279 0 01-.381-.94c0-.371.127-.68.381-.923.265-.255.599-.382 1.001-.382.392 0 .716.127.97.382.254.244.381.552.381.923 0 .372-.127.685-.381.94-.254.244-.578.366-.97.366zM191.842 60.328c-.403 0-.737-.122-1.001-.366a1.276 1.276 0 01-.382-.94c0-.371.127-.68.382-.923.264-.255.598-.382 1.001-.382.392 0 .715.127.969.382.254.244.382.552.382.923 0 .372-.128.685-.382.94-.254.244-.577.366-.969.366zM215.649 60.328c-.402 0-.736-.122-1.001-.366a1.279 1.279 0 01-.381-.94c0-.371.127-.68.381-.923.265-.255.599-.382 1.001-.382.392 0 .715.127.97.382.254.244.381.552.381.923 0 .372-.127.685-.381.94-.255.244-.578.366-.97.366zM1.383 79.567c-.403 0-.737-.122-1.002-.366A1.278 1.278 0 010 78.26c0-.371.127-.68.381-.923.265-.255.599-.382 1.002-.382.392 0 .715.127.97.382.253.244.38.552.38.923 0 .372-.127.685-.38.94-.255.244-.578.366-.97.366zM25.19 79.567c-.403 0-.736-.122-1.001-.366a1.278 1.278 0 01-.382-.94c0-.371.128-.68.382-.923.265-.255.598-.382 1.001-.382.392 0 .715.127.97.382.254.244.38.552.38.923 0 .372-.126.685-.38.94-.255.244-.578.366-.97.366zM48.997 79.567c-.402 0-.736-.122-1-.366a1.278 1.278 0 01-.382-.94c0-.371.127-.68.381-.923.265-.255.599-.382 1.001-.382.392 0 .716.127.97.382.254.244.381.552.381.923 0 .372-.127.685-.381.94-.254.244-.578.366-.97.366zM72.805 79.567c-.403 0-.737-.122-1.001-.366a1.278 1.278 0 01-.382-.94c0-.371.127-.68.382-.923.264-.255.598-.382 1-.382.393 0 .716.127.97.382.254.244.382.552.382.923 0 .372-.128.685-.382.94-.254.244-.577.366-.97.366zM96.612 79.567c-.402 0-.736-.122-1.001-.366a1.278 1.278 0 01-.381-.94c0-.371.127-.68.381-.923.265-.255.599-.382 1.001-.382.392 0 .715.127.97.382.254.244.381.552.381.923 0 .372-.127.685-.381.94-.255.244-.578.366-.97.366zM120.42 79.567c-.403 0-.737-.122-1.002-.366a1.279 1.279 0 01-.381-.94c0-.371.127-.68.381-.923.265-.255.599-.382 1.002-.382.392 0 .715.127.969.382.254.244.381.552.381.923 0 .372-.127.685-.381.94-.254.244-.577.366-.969.366zM144.227 79.567c-.403 0-.736-.122-1.001-.366a1.276 1.276 0 01-.382-.94c0-.371.127-.68.382-.923.265-.255.598-.382 1.001-.382.392 0 .715.127.969.382.255.244.382.552.382.923 0 .372-.127.685-.382.94-.254.244-.577.366-.969.366zM168.034 79.567c-.402 0-.736-.122-1.001-.366a1.279 1.279 0 01-.381-.94c0-.371.127-.68.381-.923.265-.255.599-.382 1.001-.382.392 0 .716.127.97.382.254.244.381.552.381.923 0 .372-.127.685-.381.94-.254.244-.578.366-.97.366zM191.842 79.567c-.403 0-.737-.122-1.001-.366a1.276 1.276 0 01-.382-.94c0-.371.127-.68.382-.923.264-.255.598-.382 1.001-.382.392 0 .715.127.969.382.254.244.382.552.382.923 0 .372-.128.685-.382.94-.254.244-.577.366-.969.366zM215.649 79.567c-.402 0-.736-.122-1.001-.366a1.279 1.279 0 01-.381-.94c0-.371.127-.68.381-.923.265-.255.599-.382 1.001-.382.392 0 .715.127.97.382.254.244.381.552.381.923 0 .372-.127.685-.381.94-.255.244-.578.366-.97.366zM1.383 98.806c-.403 0-.737-.123-1.002-.367A1.278 1.278 0 010 97.5c0-.371.127-.68.381-.924.265-.254.599-.382 1.002-.382.392 0 .715.128.97.382.253.245.38.553.38.924s-.127.685-.38.94c-.255.243-.578.366-.97.366zM25.19 98.806c-.403 0-.736-.123-1.001-.367a1.278 1.278 0 01-.382-.939c0-.371.128-.68.382-.924.265-.254.598-.382 1.001-.382.392 0 .715.128.97.382.254.245.38.553.38.924s-.126.685-.38.94c-.255.243-.578.366-.97.366zM48.997 98.806c-.402 0-.736-.123-1-.367a1.278 1.278 0 01-.382-.939c0-.371.127-.68.381-.924.265-.254.599-.382 1.001-.382.392 0 .716.128.97.382.254.245.381.553.381.924s-.127.685-.381.94c-.254.243-.578.366-.97.366zM72.805 98.806c-.403 0-.737-.123-1.001-.367a1.278 1.278 0 01-.382-.939c0-.371.127-.68.382-.924.264-.254.598-.382 1-.382.393 0 .716.128.97.382.254.245.382.553.382.924s-.128.685-.382.94c-.254.243-.577.366-.97.366zM96.612 98.806c-.402 0-.736-.123-1.001-.367a1.278 1.278 0 01-.381-.939c0-.371.127-.68.381-.924.265-.254.599-.382 1.001-.382.392 0 .715.128.97.382.254.245.381.553.381.924s-.127.685-.381.94c-.255.243-.578.366-.97.366zM120.42 98.806c-.403 0-.737-.123-1.002-.367a1.279 1.279 0 01-.381-.939c0-.371.127-.68.381-.924.265-.254.599-.382 1.002-.382.392 0 .715.128.969.382.254.245.381.553.381.924s-.127.685-.381.94c-.254.243-.577.366-.969.366zM144.227 98.806c-.403 0-.736-.123-1.001-.367a1.276 1.276 0 01-.382-.939c0-.371.127-.68.382-.924.265-.254.598-.382 1.001-.382.392 0 .715.128.969.382.255.245.382.553.382.924s-.127.685-.382.94c-.254.243-.577.366-.969.366zM168.034 98.806c-.402 0-.736-.123-1.001-.367a1.279 1.279 0 01-.381-.939c0-.371.127-.68.381-.924.265-.254.599-.382 1.001-.382.392 0 .716.128.97.382.254.245.381.553.381.924s-.127.685-.381.94c-.254.243-.578.366-.97.366zM191.842 98.806c-.403 0-.737-.123-1.001-.367a1.276 1.276 0 01-.382-.939c0-.371.127-.68.382-.924.264-.254.598-.382 1.001-.382.392 0 .715.128.969.382.254.245.382.553.382.924s-.128.685-.382.94c-.254.243-.577.366-.969.366zM215.649 98.806c-.402 0-.736-.123-1.001-.367a1.279 1.279 0 01-.381-.939c0-.371.127-.68.381-.924.265-.254.599-.382 1.001-.382.392 0 .715.128.97.382.254.245.381.553.381.924s-.127.685-.381.94c-.255.243-.578.366-.97.366zM1.383 118.044c-.403 0-.737-.122-1.002-.366a1.277 1.277 0 01-.381-.939c0-.372.127-.679.381-.924.265-.254.599-.382 1.002-.382.392 0 .715.128.97.382.253.245.38.552.38.924 0 .371-.127.685-.38.939-.255.244-.578.366-.97.366zM25.19 118.044c-.403 0-.736-.122-1.001-.366a1.277 1.277 0 01-.382-.939c0-.372.128-.679.382-.924.265-.254.598-.382 1.001-.382.392 0 .715.128.97.382.254.245.38.552.38.924 0 .371-.126.685-.38.939-.255.244-.578.366-.97.366zM48.997 118.044c-.402 0-.736-.122-1-.366a1.277 1.277 0 01-.382-.939c0-.372.127-.679.381-.924.265-.254.599-.382 1.001-.382.392 0 .716.128.97.382.254.245.381.552.381.924 0 .371-.127.685-.381.939-.254.244-.578.366-.97.366zM72.805 118.044c-.403 0-.737-.122-1.001-.366a1.277 1.277 0 01-.382-.939c0-.372.127-.679.382-.924.264-.254.598-.382 1-.382.393 0 .716.128.97.382.254.245.382.552.382.924 0 .371-.128.685-.382.939-.254.244-.577.366-.97.366zM96.612 118.044c-.402 0-.736-.122-1.001-.366a1.277 1.277 0 01-.381-.939c0-.372.127-.679.381-.924.265-.254.599-.382 1.001-.382.392 0 .715.128.97.382.254.245.381.552.381.924 0 .371-.127.685-.381.939-.255.244-.578.366-.97.366zM120.42 118.044c-.403 0-.737-.122-1.002-.366a1.278 1.278 0 01-.381-.939c0-.372.127-.679.381-.924.265-.254.599-.382 1.002-.382.392 0 .715.128.969.382.254.245.381.552.381.924 0 .371-.127.685-.381.939-.254.244-.577.366-.969.366zM144.227 118.044c-.403 0-.736-.122-1.001-.366a1.275 1.275 0 01-.382-.939c0-.372.127-.679.382-.924.265-.254.598-.382 1.001-.382.392 0 .715.128.969.382.255.245.382.552.382.924 0 .371-.127.685-.382.939-.254.244-.577.366-.969.366zM168.034 118.044c-.402 0-.736-.122-1.001-.366a1.278 1.278 0 01-.381-.939c0-.372.127-.679.381-.924.265-.254.599-.382 1.001-.382.392 0 .716.128.97.382.254.245.381.552.381.924 0 .371-.127.685-.381.939-.254.244-.578.366-.97.366zM191.842 118.044c-.403 0-.737-.122-1.001-.366a1.275 1.275 0 01-.382-.939c0-.372.127-.679.382-.924.264-.254.598-.382 1.001-.382.392 0 .715.128.969.382.254.245.382.552.382.924 0 .371-.128.685-.382.939-.254.244-.577.366-.969.366zM215.649 118.044c-.402 0-.736-.122-1.001-.366a1.278 1.278 0 01-.381-.939c0-.372.127-.679.381-.924.265-.254.599-.382 1.001-.382.392 0 .715.128.97.382.254.245.381.552.381.924 0 .371-.127.685-.381.939-.255.244-.578.366-.97.366zM1.383 137.283c-.403 0-.737-.122-1.002-.366a1.278 1.278 0 01-.381-.939c0-.372.127-.68.381-.924.265-.254.599-.382 1.002-.382.392 0 .715.128.97.382.253.244.38.552.38.924 0 .371-.127.684-.38.939-.255.244-.578.366-.97.366zM25.19 137.283c-.403 0-.736-.122-1.001-.366a1.278 1.278 0 01-.382-.939c0-.372.128-.68.382-.924.265-.254.598-.382 1.001-.382.392 0 .715.128.97.382.254.244.38.552.38.924 0 .371-.126.684-.38.939-.255.244-.578.366-.97.366zM48.997 137.283c-.402 0-.736-.122-1-.366a1.278 1.278 0 01-.382-.939c0-.372.127-.68.381-.924.265-.254.599-.382 1.001-.382.392 0 .716.128.97.382.254.244.381.552.381.924 0 .371-.127.684-.381.939-.254.244-.578.366-.97.366zM72.805 137.283c-.403 0-.737-.122-1.001-.366a1.278 1.278 0 01-.382-.939c0-.372.127-.68.382-.924.264-.254.598-.382 1-.382.393 0 .716.128.97.382.254.244.382.552.382.924 0 .371-.128.684-.382.939-.254.244-.577.366-.97.366zM96.612 137.283c-.402 0-.736-.122-1.001-.366a1.278 1.278 0 01-.381-.939c0-.372.127-.68.381-.924.265-.254.599-.382 1.001-.382.392 0 .715.128.97.382.254.244.381.552.381.924 0 .371-.127.684-.381.939-.255.244-.578.366-.97.366zM120.42 137.283c-.403 0-.737-.122-1.002-.366a1.28 1.28 0 01-.381-.939c0-.372.127-.68.381-.924.265-.254.599-.382 1.002-.382.392 0 .715.128.969.382.254.244.381.552.381.924 0 .371-.127.684-.381.939-.254.244-.577.366-.969.366zM144.227 137.283c-.403 0-.736-.122-1.001-.366a1.276 1.276 0 01-.382-.939c0-.372.127-.68.382-.924.265-.254.598-.382 1.001-.382.392 0 .715.128.969.382.255.244.382.552.382.924 0 .371-.127.684-.382.939-.254.244-.577.366-.969.366zM168.034 137.283c-.402 0-.736-.122-1.001-.366a1.28 1.28 0 01-.381-.939c0-.372.127-.68.381-.924.265-.254.599-.382 1.001-.382.392 0 .716.128.97.382.254.244.381.552.381.924 0 .371-.127.684-.381.939-.254.244-.578.366-.97.366zM191.842 137.283c-.403 0-.737-.122-1.001-.366a1.276 1.276 0 01-.382-.939c0-.372.127-.68.382-.924.264-.254.598-.382 1.001-.382.392 0 .715.128.969.382.254.244.382.552.382.924 0 .371-.128.684-.382.939-.254.244-.577.366-.969.366zM215.649 137.283c-.402 0-.736-.122-1.001-.366a1.28 1.28 0 01-.381-.939c0-.372.127-.68.381-.924.265-.254.599-.382 1.001-.382.392 0 .715.128.97.382.254.244.381.552.381.924 0 .371-.127.684-.381.939-.255.244-.578.366-.97.366zM1.383 156.522c-.403 0-.737-.122-1.002-.366a1.278 1.278 0 01-.381-.939c0-.372.127-.68.381-.924.265-.255.599-.382 1.002-.382.392 0 .715.127.97.382.253.244.38.552.38.924 0 .371-.127.684-.38.939-.255.244-.578.366-.97.366zM25.19 156.522c-.403 0-.736-.122-1.001-.366a1.278 1.278 0 01-.382-.939c0-.372.128-.68.382-.924.265-.255.598-.382 1.001-.382.392 0 .715.127.97.382.254.244.38.552.38.924 0 .371-.126.684-.38.939-.255.244-.578.366-.97.366zM48.997 156.522c-.402 0-.736-.122-1-.366a1.278 1.278 0 01-.382-.939c0-.372.127-.68.381-.924.265-.255.599-.382 1.001-.382.392 0 .716.127.97.382.254.244.381.552.381.924 0 .371-.127.684-.381.939-.254.244-.578.366-.97.366zM72.805 156.522c-.403 0-.737-.122-1.001-.366a1.278 1.278 0 01-.382-.939c0-.372.127-.68.382-.924.264-.255.598-.382 1-.382.393 0 .716.127.97.382.254.244.382.552.382.924 0 .371-.128.684-.382.939-.254.244-.577.366-.97.366zM96.612 156.522c-.402 0-.736-.122-1.001-.366a1.278 1.278 0 01-.381-.939c0-.372.127-.68.381-.924.265-.255.599-.382 1.001-.382.392 0 .715.127.97.382.254.244.381.552.381.924 0 .371-.127.684-.381.939-.255.244-.578.366-.97.366zM120.42 156.522c-.403 0-.737-.122-1.002-.366a1.28 1.28 0 01-.381-.939c0-.372.127-.68.381-.924.265-.255.599-.382 1.002-.382.392 0 .715.127.969.382.254.244.381.552.381.924 0 .371-.127.684-.381.939-.254.244-.577.366-.969.366zM144.227 156.522c-.403 0-.736-.122-1.001-.366a1.276 1.276 0 01-.382-.939c0-.372.127-.68.382-.924.265-.255.598-.382 1.001-.382.392 0 .715.127.969.382.255.244.382.552.382.924 0 .371-.127.684-.382.939-.254.244-.577.366-.969.366zM168.034 156.522c-.402 0-.736-.122-1.001-.366a1.28 1.28 0 01-.381-.939c0-.372.127-.68.381-.924.265-.255.599-.382 1.001-.382.392 0 .716.127.97.382.254.244.381.552.381.924 0 .371-.127.684-.381.939-.254.244-.578.366-.97.366zM191.842 156.522c-.403 0-.737-.122-1.001-.366a1.276 1.276 0 01-.382-.939c0-.372.127-.68.382-.924.264-.255.598-.382 1.001-.382.392 0 .715.127.969.382.254.244.382.552.382.924 0 .371-.128.684-.382.939-.254.244-.577.366-.969.366zM215.649 156.522c-.402 0-.736-.122-1.001-.366a1.28 1.28 0 01-.381-.939c0-.372.127-.68.381-.924.265-.255.599-.382 1.001-.382.392 0 .715.127.97.382.254.244.381.552.381.924 0 .371-.127.684-.381.939-.255.244-.578.366-.97.366zM1.383 175.761c-.403 0-.737-.122-1.002-.366a1.278 1.278 0 01-.381-.939c0-.372.127-.68.381-.924.265-.255.599-.382 1.002-.382.392 0 .715.127.97.382.253.244.38.552.38.924 0 .371-.127.684-.38.939-.255.244-.578.366-.97.366zM25.19 175.761c-.403 0-.736-.122-1.001-.366a1.278 1.278 0 01-.382-.939c0-.372.128-.68.382-.924.265-.255.598-.382 1.001-.382.392 0 .715.127.97.382.254.244.38.552.38.924 0 .371-.126.684-.38.939-.255.244-.578.366-.97.366zM48.997 175.761c-.402 0-.736-.122-1-.366a1.278 1.278 0 01-.382-.939c0-.372.127-.68.381-.924.265-.255.599-.382 1.001-.382.392 0 .716.127.97.382.254.244.381.552.381.924 0 .371-.127.684-.381.939-.254.244-.578.366-.97.366zM72.805 175.761c-.403 0-.737-.122-1.001-.366a1.278 1.278 0 01-.382-.939c0-.372.127-.68.382-.924.264-.255.598-.382 1-.382.393 0 .716.127.97.382.254.244.382.552.382.924 0 .371-.128.684-.382.939-.254.244-.577.366-.97.366zM96.612 175.761c-.402 0-.736-.122-1.001-.366a1.278 1.278 0 01-.381-.939c0-.372.127-.68.381-.924.265-.255.599-.382 1.001-.382.392 0 .715.127.97.382.254.244.381.552.381.924 0 .371-.127.684-.381.939-.255.244-.578.366-.97.366zM120.42 175.761c-.403 0-.737-.122-1.002-.366a1.28 1.28 0 01-.381-.939c0-.372.127-.68.381-.924.265-.255.599-.382 1.002-.382.392 0 .715.127.969.382.254.244.381.552.381.924 0 .371-.127.684-.381.939-.254.244-.577.366-.969.366zM144.227 175.761c-.403 0-.736-.122-1.001-.366a1.276 1.276 0 01-.382-.939c0-.372.127-.68.382-.924.265-.255.598-.382 1.001-.382.392 0 .715.127.969.382.255.244.382.552.382.924 0 .371-.127.684-.382.939-.254.244-.577.366-.969.366zM168.034 175.761c-.402 0-.736-.122-1.001-.366a1.28 1.28 0 01-.381-.939c0-.372.127-.68.381-.924.265-.255.599-.382 1.001-.382.392 0 .716.127.97.382.254.244.381.552.381.924 0 .371-.127.684-.381.939-.254.244-.578.366-.97.366zM191.842 175.761c-.403 0-.737-.122-1.001-.366a1.276 1.276 0 01-.382-.939c0-.372.127-.68.382-.924.264-.255.598-.382 1.001-.382.392 0 .715.127.969.382.254.244.382.552.382.924 0 .371-.128.684-.382.939-.254.244-.577.366-.969.366zM215.649 175.761c-.402 0-.736-.122-1.001-.366a1.28 1.28 0 01-.381-.939c0-.372.127-.68.381-.924.265-.255.599-.382 1.001-.382.392 0 .715.127.97.382.254.244.381.552.381.924 0 .371-.127.684-.381.939-.255.244-.578.366-.97.366zM1.383 195c-.403 0-.737-.122-1.002-.366a1.28 1.28 0 01-.381-.94c0-.371.127-.679.381-.923.265-.255.599-.382 1.002-.382.392 0 .715.127.97.382.253.244.38.552.38.923 0 .372-.127.685-.38.94-.255.244-.578.366-.97.366zM25.19 195c-.403 0-.736-.122-1.001-.366a1.279 1.279 0 01-.382-.94c0-.371.128-.679.382-.923.265-.255.598-.382 1.001-.382.392 0 .715.127.97.382.254.244.38.552.38.923 0 .372-.126.685-.38.94-.255.244-.578.366-.97.366zM48.997 195c-.402 0-.736-.122-1-.366a1.279 1.279 0 01-.382-.94c0-.371.127-.679.381-.923.265-.255.599-.382 1.001-.382.392 0 .716.127.97.382.254.244.381.552.381.923 0 .372-.127.685-.381.94-.254.244-.578.366-.97.366zM72.805 195c-.403 0-.737-.122-1.001-.366a1.279 1.279 0 01-.382-.94c0-.371.127-.679.382-.923.264-.255.598-.382 1-.382.393 0 .716.127.97.382.254.244.382.552.382.923 0 .372-.128.685-.382.94-.254.244-.577.366-.97.366zM96.612 195c-.402 0-.736-.122-1.001-.366a1.279 1.279 0 01-.381-.94c0-.371.127-.679.381-.923.265-.255.599-.382 1.001-.382.392 0 .715.127.97.382.254.244.381.552.381.923 0 .372-.127.685-.381.94-.255.244-.578.366-.97.366zM120.42 195c-.403 0-.737-.122-1.002-.366a1.28 1.28 0 01-.381-.94c0-.371.127-.679.381-.923.265-.255.599-.382 1.002-.382.392 0 .715.127.969.382.254.244.381.552.381.923 0 .372-.127.685-.381.94-.254.244-.577.366-.969.366zM144.227 195c-.403 0-.736-.122-1.001-.366a1.277 1.277 0 01-.382-.94c0-.371.127-.679.382-.923.265-.255.598-.382 1.001-.382.392 0 .715.127.969.382.255.244.382.552.382.923 0 .372-.127.685-.382.94-.254.244-.577.366-.969.366zM168.034 195c-.402 0-.736-.122-1.001-.366a1.28 1.28 0 01-.381-.94c0-.371.127-.679.381-.923.265-.255.599-.382 1.001-.382.392 0 .716.127.97.382.254.244.381.552.381.923 0 .372-.127.685-.381.94-.254.244-.578.366-.97.366zM191.842 195c-.403 0-.737-.122-1.001-.366a1.277 1.277 0 01-.382-.94c0-.371.127-.679.382-.923.264-.255.598-.382 1.001-.382.392 0 .715.127.969.382.254.244.382.552.382.923 0 .372-.128.685-.382.94-.254.244-.577.366-.969.366zM215.649 195c-.402 0-.736-.122-1.001-.366a1.28 1.28 0 01-.381-.94c0-.371.127-.679.381-.923.265-.255.599-.382 1.001-.382.392 0 .715.127.97.382.254.244.381.552.381.923 0 .372-.127.685-.381.94-.255.244-.578.366-.97.366z" fill="#A0AEC0"/>
</svg>
