<svg width="96" height="78" viewBox="0 0 96 78" fill="none" xmlns="http://www.w3.org/2000/svg">
<path d="M95.5126 9.57099C92.0335 11.1127 88.296 12.1543 84.3668 12.6252C88.421 10.1993 91.4541 6.38127 92.9001 1.88349C89.0911 4.14595 84.9224 5.73847 80.5751 6.59183C77.6517 3.47043 73.7795 1.40152 69.5598 0.7063C65.3401 0.0110823 61.0089 0.728456 57.2386 2.74704C53.4684 4.76563 50.47 7.9725 48.7091 11.8698C46.9482 15.767 46.5232 20.1366 47.5001 24.3002C39.7822 23.9126 32.2319 21.9066 25.3394 18.4123C18.4469 14.9179 12.3661 10.0133 7.4918 4.01683C5.82513 6.89183 4.8668 10.2252 4.8668 13.7752C4.86494 16.971 5.65193 20.1178 7.15796 22.9365C8.66398 25.7553 10.8425 28.1587 13.5001 29.9335C10.4179 29.8354 7.40377 29.0026 4.70846 27.5043V27.7543C4.70815 32.2366 6.2586 36.5809 9.09673 40.0501C11.9349 43.5194 15.8858 45.8999 20.2793 46.7877C17.4201 47.5615 14.4224 47.6755 11.5126 47.121C12.7522 50.9777 15.1668 54.3503 18.4183 56.7665C21.6699 59.1828 25.5956 60.5217 29.646 60.596C22.7703 65.9935 14.2788 68.9214 5.53763 68.9085C3.98922 68.9089 2.44211 68.8185 0.904297 68.6377C9.77711 74.3426 20.1057 77.3703 30.6543 77.3585C66.3626 77.3585 85.8835 47.7835 85.8835 22.1335C85.8835 21.3002 85.8626 20.4585 85.8251 19.6252C89.6222 16.8792 92.8998 13.4789 95.5043 9.58349L95.5126 9.57099Z" fill="#EA1D76"/>
</svg>
