<svg width="143" height="100" viewBox="0 0 143 100" fill="none" xmlns="http://www.w3.org/2000/svg">
<path d="M71.9603 0.000244141H72.7558C80.1029 0.0269369 117.33 0.293866 127.367 2.98094C130.402 3.80102 133.167 5.3995 135.386 7.61665C137.606 9.83381 139.202 12.592 140.015 15.6155C140.917 18.9966 141.552 23.4721 141.981 28.0899L142.07 29.0153L142.267 31.3287L142.339 32.254C142.92 40.3864 142.991 48.0027 143 49.6666V50.3339C142.991 52.06 142.911 60.1924 142.267 68.6629L142.196 69.5972L142.115 70.5225C141.668 75.612 141.007 80.6658 140.015 84.385C139.204 87.4097 137.609 90.1692 135.389 92.3867C133.169 94.6043 130.403 96.2019 127.367 97.0196C116.999 99.7956 77.5913 99.9913 72.1301 100H70.8609C68.0991 100 56.6762 99.9469 44.6992 99.5376L43.1798 99.4842L42.4021 99.4486L40.8737 99.3863L39.3453 99.324C29.4241 98.888 19.9766 98.1851 15.6237 97.0107C12.5892 96.1938 9.82351 94.5975 7.60382 92.3816C5.38414 90.1657 3.78837 87.4081 2.97637 84.385C1.98425 80.6747 1.32283 75.612 0.87593 70.5225L0.804425 69.5883L0.732921 68.6629C0.291806 62.6339 0.0473705 56.5922 0 50.5474L0 49.453C0.0178761 47.5401 0.0893806 40.9291 0.572036 33.6331L0.634602 32.7167L0.661416 32.254L0.732921 31.3287L0.929558 29.0153L1.01894 28.0899C1.44797 23.4721 2.08257 18.9877 2.98531 15.6155C3.79594 12.5908 5.3911 9.83129 7.61087 7.61375C9.83065 5.39622 12.597 3.79856 15.6327 2.98094C19.9855 1.82425 29.433 1.11244 39.3543 0.667563L40.8737 0.60528L42.4111 0.551896L43.1798 0.525203L44.7082 0.46292C53.2146 0.190428 61.7245 0.0391521 70.2353 0.00914215H71.9603V0.000244141ZM57.2036 28.5615V71.4301L94.3591 50.0047L57.2036 28.5615Z" fill="#EA1D76"/>
</svg>
