<svg width="128" height="128" viewBox="0 0 128 128" fill="none" xmlns="http://www.w3.org/2000/svg">
<path d="M64 0L64.0124 63.937L88.4919 4.87169L64.0356 63.9468L109.255 18.7452L64.0532 63.9644L123.128 39.5081L64.063 63.9876L128 64L64.063 64.0124L123.128 88.4919L64.0532 64.0356L109.255 109.255L64.0356 64.0532L88.4919 123.128L64.0124 64.063L64 128L63.9876 64.063L39.5081 123.128L63.9644 64.0532L18.7452 109.255L63.9468 64.0356L4.87169 88.4919L63.937 64.0124L0 64L63.937 63.9876L4.87169 39.5081L63.9468 63.9644L18.7452 18.7452L63.9644 63.9468L39.5081 4.87169L63.9876 63.937L64 0Z" fill="#A0AEC0" stroke="#D8D9DB" stroke-width="4"/>
</svg>
