<svg width="240" height="240" viewBox="0 0 240 240" fill="none" xmlns="http://www.w3.org/2000/svg">
<g clip-path="url(#clip0)">
<rect width="240" height="240" rx="23.5102" fill="#EA1D76"/>
<rect width="240" height="240" rx="23.5102" fill="white"/>
<path d="M108.174 103.685L113.091 114.486C114.248 117.06 116.747 118.781 119.577 118.939L146.31 120.445C150.756 120.694 154.477 117.121 154.381 112.687C154.234 105.682 153.824 95.4975 152.702 87.3829C152.422 85.3274 151.875 83.3158 151.104 81.3923C145.748 68.0838 139.653 62.2472 124.413 61.927C108.103 61.5872 99.1799 73.3803 96.5999 80.7299C94.0248 88.0844 94.1991 102.441 101.581 109.107C108.962 115.777 106.903 138.51 106.903 138.51C106.903 138.51 121.335 136.073 127.801 142.271C128.213 142.67 128.633 143.054 129.087 143.401C132.254 145.84 134.205 145.703 134.205 145.703L133.97 127.147C133.957 125.949 134.708 124.879 135.84 124.478L143.106 120.391" fill="white"/>
<path d="M156.175 71.3422L153.494 69.1791L161.055 59.884L137.381 61.5313L141.063 40.5775L120.985 57.9384L111.964 48.0567L113.957 59.9671L110.552 60.5317L106.637 37.1117L121.27 53.1429L146.137 31.6417L141.534 57.7966L168.724 55.9048L156.175 71.3422Z" fill="#ECED15"/>
<path d="M71.5312 113.079L85.671 92.9705L71.7792 81.9058L88.44 80.3269L88.7665 83.7463L80.5846 84.5211L90.3499 92.2984L79.6518 107.518L91.7368 104.512L92.569 107.843L71.5312 113.079Z" fill="#EBEC11"/>
<path d="M123.957 58.3104L136.214 48.6853L134.091 60.1851L123.957 58.3104Z" fill="#ECED15"/>
<path d="M89.2492 96.9741L84.8281 103.957L91.0756 102.781L89.2492 96.9741Z" fill="#ECED15"/>
<path d="M90.2483 89.9912C89.8948 89.5195 85.6504 86.1197 85.6504 86.1197L91.3087 85.6504L90.2483 89.9912Z" fill="#ECED15"/>
<path d="M132.418 128.424L132.624 144.739C132.001 144.45 131.227 144.003 130.317 143.304C129.897 142.979 129.502 142.61 129.17 142.292C125.13 138.418 118.514 137.575 113.521 137.575C111.714 137.575 110.123 137.685 108.938 137.802C109.055 135.531 109.166 131.684 108.903 127.458C108.334 118.349 106.318 112.17 102.913 109.091C99.9308 106.402 97.9179 101.834 97.2428 96.2319C96.6684 91.4731 97.1127 86.2353 98.4015 82.5544C100.756 75.8451 108.911 64.5776 124.55 64.9026C138.081 65.1861 144.186 69.6541 149.673 83.2876C150.404 85.1012 150.908 86.9832 151.17 88.8725C152.275 96.8771 152.685 106.942 152.832 113.984C152.867 115.643 152.223 117.191 151.025 118.344C149.825 119.498 148.244 120.08 146.58 119.989L119.847 118.483C117.655 118.359 115.735 117.041 114.839 115.032L109.922 104.234L109.865 104.258L109.907 103.926C104.089 103.215 101.519 99.749 101.035 91.9644C100.981 91.1138 101.001 89.6351 101.738 89.1878C103.021 88.4105 106.424 89.728 108.316 90.8645L110.101 87.9242C109.019 87.2716 103.456 84.1357 99.948 86.2499C98.2051 87.2984 97.4122 89.2953 97.5914 92.1721C97.9326 97.6495 99.3589 104.904 107.362 106.935L111.692 116.445C113.116 119.62 116.162 121.717 119.655 121.913L137.524 122.917L135.28 124.176C133.54 124.863 132.398 126.549 132.418 128.424ZM135.867 128.385C135.862 127.923 136.154 127.51 136.591 127.361L136.731 127.309L143.897 123.274L146.383 123.418C148.985 123.562 151.551 122.614 153.421 120.815C155.294 119.019 156.333 116.499 156.279 113.908C156.131 106.783 155.712 96.5692 154.585 88.4081C154.288 86.2377 153.711 84.0844 152.876 82.0117C149.823 74.4226 146.779 69.8423 142.691 66.6918C138.292 63.2919 132.55 61.6348 124.624 61.4686C117.038 61.3121 110.05 63.7025 104.426 68.3856C98.4211 73.3839 95.9344 79.1667 95.1464 81.4251C92.3233 89.4786 92.6449 104.459 100.596 111.637C106.122 116.631 105.908 133.525 105.356 139.613L105.155 141.835L107.364 141.463C107.501 141.434 121.005 139.232 126.777 144.77C127.152 145.122 127.651 145.592 128.205 146.017C131.365 148.451 133.584 148.686 134.311 148.681C134.389 148.681 134.453 148.679 134.495 148.679L136.125 148.566L135.867 128.385Z" fill="#EA1D76"/>
<path d="M121.608 114.359L143.568 116.205C117.496 110.121 112.002 100.161 112.002 100.161L117.879 111.832C118.591 113.269 120.005 114.228 121.608 114.359Z" fill="#EA1D76"/>
<path d="M50.9136 189.173V157.335H45.373V189.173C45.373 195.474 50.5208 200.597 56.8444 200.597H69.5088V195.08H56.8444C53.5721 195.08 50.9136 192.429 50.9136 189.173Z" fill="#EA1D76"/>
<path d="M125.066 177.668C123.448 179.215 121.317 180.029 119.064 179.941C114.815 179.778 111.358 176.339 111.196 172.108C111.11 169.864 111.92 167.743 113.482 166.132C115.04 164.521 117.137 163.631 119.385 163.631V158.115C115.617 158.115 112.102 159.604 109.49 162.304C106.878 165.005 105.518 168.564 105.661 172.32C105.933 179.413 111.726 185.179 118.853 185.453C122.037 185.575 125.076 184.624 127.577 182.762V196.992H120.063C116.373 196.992 113.369 194 113.369 190.322V188.489H107.828V190.322C107.828 197.043 113.315 202.508 120.063 202.508H133.118V171.79H127.577C127.577 174.027 126.686 176.114 125.066 177.668Z" fill="#EA1D76"/>
<path d="M151.782 186.208C145.61 186.208 140.595 181.212 140.595 175.072C140.595 168.93 145.61 163.939 151.782 163.939C157.948 163.939 162.966 168.93 162.966 175.072C162.966 181.212 157.948 186.208 151.782 186.208ZM151.782 158.418C142.557 158.418 135.055 165.889 135.055 175.072C135.055 184.257 142.557 191.727 151.782 191.727C161.005 191.727 168.509 184.257 168.509 175.072C168.509 165.889 161.005 158.418 151.782 158.418Z" fill="#EA1D76"/>
<path d="M182.301 177.317H180.524C177.5 176.527 175.263 173.787 175.263 170.534C175.263 166.67 178.42 163.527 182.301 163.527C186.185 163.527 189.342 166.67 189.342 170.534H194.88C194.88 163.627 189.238 158.01 182.301 158.01C175.364 158.01 169.723 163.627 169.723 170.534C169.723 177.441 175.364 183.063 182.301 183.063H184.083C187.105 183.848 189.342 186.585 189.342 189.843C189.342 193.707 186.185 196.85 182.301 196.85C178.42 196.85 175.263 193.707 175.263 189.843H169.723C169.723 196.748 175.364 202.365 182.301 202.365C189.238 202.365 194.88 196.748 194.88 189.843C194.88 182.933 189.238 177.317 182.301 177.317Z" fill="#EA1D76"/>
<path d="M139.234 199.685H165.01V194.168H139.234V199.685Z" fill="#EA1D76"/>
<path d="M87.7872 186.208C81.6231 186.208 76.6055 181.212 76.6055 175.072C76.6055 168.93 81.6231 163.939 87.7872 163.939C93.9586 163.939 98.9738 168.93 98.9738 175.072C98.9738 181.212 93.9586 186.208 87.7872 186.208ZM87.7872 158.418C78.5669 158.418 71.0625 165.889 71.0625 175.072C71.0625 184.257 78.5669 191.727 87.7872 191.727C97.0148 191.727 104.517 184.257 104.517 175.072C104.517 165.889 97.0148 158.418 87.7872 158.418Z" fill="#EA1D76"/>
<path d="M75.248 199.685H101.019V194.168H75.248V199.685Z" fill="#EA1D76"/>
</g>
<defs>
<clipPath id="clip0">
<rect width="240" height="240" rx="23.5102" fill="white"/>
</clipPath>
</defs>
</svg>
