<svg width="217" height="195" viewBox="0 0 217 195" fill="none" xmlns="http://www.w3.org/2000/svg">
<path d="M1.38263 2.61118C0.980025 2.61118 0.646286 2.48911 0.381415 2.24498C0.127138 1.99023 0 1.6771 0 1.30559C0 0.934081 0.127138 0.626259 0.381415 0.382124C0.646286 0.127375 0.980025 0 1.38263 0C1.77464 0 2.09778 0.127375 2.35206 0.382124C2.60634 0.626259 2.73347 0.934081 2.73347 1.30559C2.73347 1.6771 2.60634 1.99023 2.35206 2.24498C2.09778 2.48911 1.77464 2.61118 1.38263 2.61118Z" fill="#A0AEC0"/>
<path d="M25.19 2.61118C24.7874 2.61118 24.4537 2.48911 24.1888 2.24498C23.9345 1.99023 23.8074 1.6771 23.8074 1.30559C23.8074 0.934081 23.9345 0.626259 24.1888 0.382124C24.4537 0.127375 24.7874 0 25.19 0C25.582 0 25.9052 0.127375 26.1594 0.382124C26.4137 0.626259 26.5409 0.934081 26.5409 1.30559C26.5409 1.6771 26.4137 1.99023 26.1594 2.24498C25.9052 2.48911 25.582 2.61118 25.19 2.61118Z" fill="#A0AEC0"/>
<path d="M48.9974 2.61118C48.5948 2.61118 48.2611 2.48911 47.9962 2.24498C47.7419 1.99023 47.6148 1.6771 47.6148 1.30559C47.6148 0.934081 47.7419 0.626259 47.9962 0.382124C48.2611 0.127375 48.5948 0 48.9974 0C49.3894 0 49.7126 0.127375 49.9668 0.382124C50.2211 0.626259 50.3483 0.934081 50.3483 1.30559C50.3483 1.6771 50.2211 1.99023 49.9668 2.24498C49.7126 2.48911 49.3894 2.61118 48.9974 2.61118Z" fill="#A0AEC0"/>
<path d="M72.8048 2.61118C72.4022 2.61118 72.0685 2.48911 71.8036 2.24498C71.5493 1.99023 71.4222 1.6771 71.4222 1.30559C71.4222 0.934081 71.5493 0.626259 71.8036 0.382124C72.0685 0.127375 72.4022 0 72.8048 0C73.1968 0 73.52 0.127375 73.7742 0.382124C74.0285 0.626259 74.1556 0.934081 74.1556 1.30559C74.1556 1.6771 74.0285 1.99023 73.7742 2.24498C73.52 2.48911 73.1968 2.61118 72.8048 2.61118Z" fill="#A0AEC0"/>
<path d="M96.6122 2.61118C96.2096 2.61118 95.8759 2.48911 95.611 2.24498C95.3567 1.99023 95.2296 1.6771 95.2296 1.30559C95.2296 0.934081 95.3567 0.626259 95.611 0.382124C95.8759 0.127375 96.2096 0 96.6122 0C97.0042 0 97.3274 0.127375 97.5816 0.382124C97.8359 0.626259 97.963 0.934081 97.963 1.30559C97.963 1.6771 97.8359 1.99023 97.5816 2.24498C97.3274 2.48911 97.0042 2.61118 96.6122 2.61118Z" fill="#A0AEC0"/>
<path d="M120.42 2.61118C120.017 2.61118 119.683 2.48911 119.418 2.24498C119.164 1.99023 119.037 1.6771 119.037 1.30559C119.037 0.934081 119.164 0.626259 119.418 0.382124C119.683 0.127375 120.017 0 120.42 0C120.812 0 121.135 0.127375 121.389 0.382124C121.643 0.626259 121.77 0.934081 121.77 1.30559C121.77 1.6771 121.643 1.99023 121.389 2.24498C121.135 2.48911 120.812 2.61118 120.42 2.61118Z" fill="#A0AEC0"/>
<path d="M144.227 2.61118C143.824 2.61118 143.491 2.48911 143.226 2.24498C142.971 1.99023 142.844 1.6771 142.844 1.30559C142.844 0.934081 142.971 0.626259 143.226 0.382124C143.491 0.127375 143.824 0 144.227 0C144.619 0 144.942 0.127375 145.196 0.382124C145.451 0.626259 145.578 0.934081 145.578 1.30559C145.578 1.6771 145.451 1.99023 145.196 2.24498C144.942 2.48911 144.619 2.61118 144.227 2.61118Z" fill="#A0AEC0"/>
<path d="M168.034 2.61118C167.632 2.61118 167.298 2.48911 167.033 2.24498C166.779 1.99023 166.652 1.6771 166.652 1.30559C166.652 0.934081 166.779 0.626259 167.033 0.382124C167.298 0.127375 167.632 0 168.034 0C168.426 0 168.75 0.127375 169.004 0.382124C169.258 0.626259 169.385 0.934081 169.385 1.30559C169.385 1.6771 169.258 1.99023 169.004 2.24498C168.75 2.48911 168.426 2.61118 168.034 2.61118Z" fill="#A0AEC0"/>
<path d="M191.842 2.61118C191.439 2.61118 191.105 2.48911 190.841 2.24498C190.586 1.99023 190.459 1.6771 190.459 1.30559C190.459 0.934081 190.586 0.626259 190.841 0.382124C191.105 0.127375 191.439 0 191.842 0C192.234 0 192.557 0.127375 192.811 0.382124C193.065 0.626259 193.193 0.934081 193.193 1.30559C193.193 1.6771 193.065 1.99023 192.811 2.24498C192.557 2.48911 192.234 2.61118 191.842 2.61118Z" fill="#A0AEC0"/>
<path d="M215.649 2.61118C215.247 2.61118 214.913 2.48911 214.648 2.24498C214.394 1.99023 214.267 1.6771 214.267 1.30559C214.267 0.934081 214.394 0.626259 214.648 0.382124C214.913 0.127375 215.247 0 215.649 0C216.041 0 216.364 0.127375 216.619 0.382124C216.873 0.626259 217 0.934081 217 1.30559C217 1.6771 216.873 1.99023 216.619 2.24498C216.364 2.48911 216.041 2.61118 215.649 2.61118Z" fill="#A0AEC0"/>
<path d="M1.38263 21.8501C0.980025 21.8501 0.646286 21.728 0.381415 21.4839C0.127138 21.2291 0 20.916 0 20.5445C0 20.173 0.127138 19.8651 0.381415 19.621C0.646286 19.3663 0.980025 19.2389 1.38263 19.2389C1.77464 19.2389 2.09778 19.3663 2.35206 19.621C2.60634 19.8651 2.73347 20.173 2.73347 20.5445C2.73347 20.916 2.60634 21.2291 2.35206 21.4839C2.09778 21.728 1.77464 21.8501 1.38263 21.8501Z" fill="#A0AEC0"/>
<path d="M25.19 21.8501C24.7874 21.8501 24.4537 21.728 24.1888 21.4839C23.9345 21.2291 23.8074 20.916 23.8074 20.5445C23.8074 20.173 23.9345 19.8651 24.1888 19.621C24.4537 19.3663 24.7874 19.2389 25.19 19.2389C25.582 19.2389 25.9052 19.3663 26.1594 19.621C26.4137 19.8651 26.5409 20.173 26.5409 20.5445C26.5409 20.916 26.4137 21.2291 26.1594 21.4839C25.9052 21.728 25.582 21.8501 25.19 21.8501Z" fill="#A0AEC0"/>
<path d="M48.9974 21.8501C48.5948 21.8501 48.2611 21.728 47.9962 21.4839C47.7419 21.2291 47.6148 20.916 47.6148 20.5445C47.6148 20.173 47.7419 19.8651 47.9962 19.621C48.2611 19.3663 48.5948 19.2389 48.9974 19.2389C49.3894 19.2389 49.7126 19.3663 49.9668 19.621C50.2211 19.8651 50.3483 20.173 50.3483 20.5445C50.3483 20.916 50.2211 21.2291 49.9668 21.4839C49.7126 21.728 49.3894 21.8501 48.9974 21.8501Z" fill="#A0AEC0"/>
<path d="M72.8048 21.8501C72.4022 21.8501 72.0685 21.728 71.8036 21.4839C71.5493 21.2291 71.4222 20.916 71.4222 20.5445C71.4222 20.173 71.5493 19.8651 71.8036 19.621C72.0685 19.3663 72.4022 19.2389 72.8048 19.2389C73.1968 19.2389 73.52 19.3663 73.7742 19.621C74.0285 19.8651 74.1556 20.173 74.1556 20.5445C74.1556 20.916 74.0285 21.2291 73.7742 21.4839C73.52 21.728 73.1968 21.8501 72.8048 21.8501Z" fill="#A0AEC0"/>
<path d="M96.6122 21.8501C96.2096 21.8501 95.8759 21.728 95.611 21.4839C95.3567 21.2291 95.2296 20.916 95.2296 20.5445C95.2296 20.173 95.3567 19.8651 95.611 19.621C95.8759 19.3663 96.2096 19.2389 96.6122 19.2389C97.0042 19.2389 97.3274 19.3663 97.5816 19.621C97.8359 19.8651 97.963 20.173 97.963 20.5445C97.963 20.916 97.8359 21.2291 97.5816 21.4839C97.3274 21.728 97.0042 21.8501 96.6122 21.8501Z" fill="#A0AEC0"/>
<path d="M120.42 21.8501C120.017 21.8501 119.683 21.728 119.418 21.4839C119.164 21.2291 119.037 20.916 119.037 20.5445C119.037 20.173 119.164 19.8651 119.418 19.621C119.683 19.3663 120.017 19.2389 120.42 19.2389C120.812 19.2389 121.135 19.3663 121.389 19.621C121.643 19.8651 121.77 20.173 121.77 20.5445C121.77 20.916 121.643 21.2291 121.389 21.4839C121.135 21.728 120.812 21.8501 120.42 21.8501Z" fill="#A0AEC0"/>
<path d="M144.227 21.8501C143.824 21.8501 143.491 21.728 143.226 21.4839C142.971 21.2291 142.844 20.916 142.844 20.5445C142.844 20.173 142.971 19.8651 143.226 19.621C143.491 19.3663 143.824 19.2389 144.227 19.2389C144.619 19.2389 144.942 19.3663 145.196 19.621C145.451 19.8651 145.578 20.173 145.578 20.5445C145.578 20.916 145.451 21.2291 145.196 21.4839C144.942 21.728 144.619 21.8501 144.227 21.8501Z" fill="#A0AEC0"/>
<path d="M168.034 21.8501C167.632 21.8501 167.298 21.728 167.033 21.4839C166.779 21.2291 166.652 20.916 166.652 20.5445C166.652 20.173 166.779 19.8651 167.033 19.621C167.298 19.3663 167.632 19.2389 168.034 19.2389C168.426 19.2389 168.75 19.3663 169.004 19.621C169.258 19.8651 169.385 20.173 169.385 20.5445C169.385 20.916 169.258 21.2291 169.004 21.4839C168.75 21.728 168.426 21.8501 168.034 21.8501Z" fill="#A0AEC0"/>
<path d="M191.842 21.8501C191.439 21.8501 191.105 21.728 190.841 21.4839C190.586 21.2291 190.459 20.916 190.459 20.5445C190.459 20.173 190.586 19.8651 190.841 19.621C191.105 19.3663 191.439 19.2389 191.842 19.2389C192.234 19.2389 192.557 19.3663 192.811 19.621C193.065 19.8651 193.193 20.173 193.193 20.5445C193.193 20.916 193.065 21.2291 192.811 21.4839C192.557 21.728 192.234 21.8501 191.842 21.8501Z" fill="#A0AEC0"/>
<path d="M215.649 21.8501C215.247 21.8501 214.913 21.728 214.648 21.4839C214.394 21.2291 214.267 20.916 214.267 20.5445C214.267 20.173 214.394 19.8651 214.648 19.621C214.913 19.3663 215.247 19.2389 215.649 19.2389C216.041 19.2389 216.364 19.3663 216.619 19.621C216.873 19.8651 217 20.173 217 20.5445C217 20.916 216.873 21.2291 216.619 21.4839C216.364 21.728 216.041 21.8501 215.649 21.8501Z" fill="#A0AEC0"/>
<path d="M1.38263 41.0889C0.980025 41.0889 0.646286 40.9669 0.381415 40.7227C0.127138 40.468 0 40.1549 0 39.7834C0 39.4118 0.127138 39.104 0.381415 38.8599C0.646286 38.6051 0.980025 38.4778 1.38263 38.4778C1.77464 38.4778 2.09778 38.6051 2.35206 38.8599C2.60634 39.104 2.73347 39.4118 2.73347 39.7834C2.73347 40.1549 2.60634 40.468 2.35206 40.7227C2.09778 40.9669 1.77464 41.0889 1.38263 41.0889Z" fill="#A0AEC0"/>
<path d="M25.19 41.0889C24.7874 41.0889 24.4537 40.9669 24.1888 40.7227C23.9345 40.468 23.8074 40.1549 23.8074 39.7834C23.8074 39.4118 23.9345 39.104 24.1888 38.8599C24.4537 38.6051 24.7874 38.4778 25.19 38.4778C25.582 38.4778 25.9052 38.6051 26.1594 38.8599C26.4137 39.104 26.5409 39.4118 26.5409 39.7834C26.5409 40.1549 26.4137 40.468 26.1594 40.7227C25.9052 40.9669 25.582 41.0889 25.19 41.0889Z" fill="#A0AEC0"/>
<path d="M48.9974 41.0889C48.5948 41.0889 48.2611 40.9669 47.9962 40.7227C47.7419 40.468 47.6148 40.1549 47.6148 39.7834C47.6148 39.4118 47.7419 39.104 47.9962 38.8599C48.2611 38.6051 48.5948 38.4778 48.9974 38.4778C49.3894 38.4778 49.7126 38.6051 49.9668 38.8599C50.2211 39.104 50.3483 39.4118 50.3483 39.7834C50.3483 40.1549 50.2211 40.468 49.9668 40.7227C49.7126 40.9669 49.3894 41.0889 48.9974 41.0889Z" fill="#A0AEC0"/>
<path d="M72.8048 41.0889C72.4022 41.0889 72.0685 40.9669 71.8036 40.7227C71.5493 40.468 71.4222 40.1549 71.4222 39.7834C71.4222 39.4118 71.5493 39.104 71.8036 38.8599C72.0685 38.6051 72.4022 38.4778 72.8048 38.4778C73.1968 38.4778 73.52 38.6051 73.7742 38.8599C74.0285 39.104 74.1556 39.4118 74.1556 39.7834C74.1556 40.1549 74.0285 40.468 73.7742 40.7227C73.52 40.9669 73.1968 41.0889 72.8048 41.0889Z" fill="#A0AEC0"/>
<path d="M96.6122 41.0889C96.2096 41.0889 95.8759 40.9669 95.611 40.7227C95.3567 40.468 95.2296 40.1549 95.2296 39.7834C95.2296 39.4118 95.3567 39.104 95.611 38.8599C95.8759 38.6051 96.2096 38.4778 96.6122 38.4778C97.0042 38.4778 97.3274 38.6051 97.5816 38.8599C97.8359 39.104 97.963 39.4118 97.963 39.7834C97.963 40.1549 97.8359 40.468 97.5816 40.7227C97.3274 40.9669 97.0042 41.0889 96.6122 41.0889Z" fill="#A0AEC0"/>
<path d="M120.42 41.0889C120.017 41.0889 119.683 40.9669 119.418 40.7227C119.164 40.468 119.037 40.1549 119.037 39.7834C119.037 39.4118 119.164 39.104 119.418 38.8599C119.683 38.6051 120.017 38.4778 120.42 38.4778C120.812 38.4778 121.135 38.6051 121.389 38.8599C121.643 39.104 121.77 39.4118 121.77 39.7834C121.77 40.1549 121.643 40.468 121.389 40.7227C121.135 40.9669 120.812 41.0889 120.42 41.0889Z" fill="#A0AEC0"/>
<path d="M144.227 41.0889C143.824 41.0889 143.491 40.9669 143.226 40.7227C142.971 40.468 142.844 40.1549 142.844 39.7834C142.844 39.4118 142.971 39.104 143.226 38.8599C143.491 38.6051 143.824 38.4778 144.227 38.4778C144.619 38.4778 144.942 38.6051 145.196 38.8599C145.451 39.104 145.578 39.4118 145.578 39.7834C145.578 40.1549 145.451 40.468 145.196 40.7227C144.942 40.9669 144.619 41.0889 144.227 41.0889Z" fill="#A0AEC0"/>
<path d="M168.034 41.0889C167.632 41.0889 167.298 40.9669 167.033 40.7227C166.779 40.468 166.652 40.1549 166.652 39.7834C166.652 39.4118 166.779 39.104 167.033 38.8599C167.298 38.6051 167.632 38.4778 168.034 38.4778C168.426 38.4778 168.75 38.6051 169.004 38.8599C169.258 39.104 169.385 39.4118 169.385 39.7834C169.385 40.1549 169.258 40.468 169.004 40.7227C168.75 40.9669 168.426 41.0889 168.034 41.0889Z" fill="#A0AEC0"/>
<path d="M191.842 41.0889C191.439 41.0889 191.105 40.9669 190.841 40.7227C190.586 40.468 190.459 40.1549 190.459 39.7834C190.459 39.4118 190.586 39.104 190.841 38.8599C191.105 38.6051 191.439 38.4778 191.842 38.4778C192.234 38.4778 192.557 38.6051 192.811 38.8599C193.065 39.104 193.193 39.4118 193.193 39.7834C193.193 40.1549 193.065 40.468 192.811 40.7227C192.557 40.9669 192.234 41.0889 191.842 41.0889Z" fill="#A0AEC0"/>
<path d="M215.649 41.0889C215.247 41.0889 214.913 40.9669 214.648 40.7227C214.394 40.468 214.267 40.1549 214.267 39.7834C214.267 39.4118 214.394 39.104 214.648 38.8599C214.913 38.6051 215.247 38.4778 215.649 38.4778C216.041 38.4778 216.364 38.6051 216.619 38.8599C216.873 39.104 217 39.4118 217 39.7834C217 40.1549 216.873 40.468 216.619 40.7227C216.364 40.9669 216.041 41.0889 215.649 41.0889Z" fill="#A0AEC0"/>
<path d="M1.38263 60.3278C0.980025 60.3278 0.646286 60.2058 0.381415 59.9616C0.127138 59.7069 0 59.3937 0 59.0222C0 58.6507 0.127138 58.3429 0.381415 58.0988C0.646286 57.844 0.980025 57.7166 1.38263 57.7166C1.77464 57.7166 2.09778 57.844 2.35206 58.0988C2.60634 58.3429 2.73347 58.6507 2.73347 59.0222C2.73347 59.3937 2.60634 59.7069 2.35206 59.9616C2.09778 60.2058 1.77464 60.3278 1.38263 60.3278Z" fill="#A0AEC0"/>
<path d="M25.19 60.3278C24.7874 60.3278 24.4537 60.2058 24.1888 59.9616C23.9345 59.7069 23.8074 59.3937 23.8074 59.0222C23.8074 58.6507 23.9345 58.3429 24.1888 58.0988C24.4537 57.844 24.7874 57.7166 25.19 57.7166C25.582 57.7166 25.9052 57.844 26.1594 58.0988C26.4137 58.3429 26.5409 58.6507 26.5409 59.0222C26.5409 59.3937 26.4137 59.7069 26.1594 59.9616C25.9052 60.2058 25.582 60.3278 25.19 60.3278Z" fill="#A0AEC0"/>
<path d="M48.9974 60.3278C48.5948 60.3278 48.2611 60.2058 47.9962 59.9616C47.7419 59.7069 47.6148 59.3937 47.6148 59.0222C47.6148 58.6507 47.7419 58.3429 47.9962 58.0988C48.2611 57.844 48.5948 57.7166 48.9974 57.7166C49.3894 57.7166 49.7126 57.844 49.9668 58.0988C50.2211 58.3429 50.3483 58.6507 50.3483 59.0222C50.3483 59.3937 50.2211 59.7069 49.9668 59.9616C49.7126 60.2058 49.3894 60.3278 48.9974 60.3278Z" fill="#A0AEC0"/>
<path d="M72.8048 60.3278C72.4022 60.3278 72.0685 60.2058 71.8036 59.9616C71.5493 59.7069 71.4222 59.3937 71.4222 59.0222C71.4222 58.6507 71.5493 58.3429 71.8036 58.0988C72.0685 57.844 72.4022 57.7166 72.8048 57.7166C73.1968 57.7166 73.52 57.844 73.7742 58.0988C74.0285 58.3429 74.1556 58.6507 74.1556 59.0222C74.1556 59.3937 74.0285 59.7069 73.7742 59.9616C73.52 60.2058 73.1968 60.3278 72.8048 60.3278Z" fill="#A0AEC0"/>
<path d="M96.6122 60.3278C96.2096 60.3278 95.8759 60.2058 95.611 59.9616C95.3567 59.7069 95.2296 59.3937 95.2296 59.0222C95.2296 58.6507 95.3567 58.3429 95.611 58.0988C95.8759 57.844 96.2096 57.7166 96.6122 57.7166C97.0042 57.7166 97.3274 57.844 97.5816 58.0988C97.8359 58.3429 97.963 58.6507 97.963 59.0222C97.963 59.3937 97.8359 59.7069 97.5816 59.9616C97.3274 60.2058 97.0042 60.3278 96.6122 60.3278Z" fill="#A0AEC0"/>
<path d="M120.42 60.3278C120.017 60.3278 119.683 60.2058 119.418 59.9616C119.164 59.7069 119.037 59.3937 119.037 59.0222C119.037 58.6507 119.164 58.3429 119.418 58.0988C119.683 57.844 120.017 57.7166 120.42 57.7166C120.812 57.7166 121.135 57.844 121.389 58.0988C121.643 58.3429 121.77 58.6507 121.77 59.0222C121.77 59.3937 121.643 59.7069 121.389 59.9616C121.135 60.2058 120.812 60.3278 120.42 60.3278Z" fill="#A0AEC0"/>
<path d="M144.227 60.3278C143.824 60.3278 143.491 60.2058 143.226 59.9616C142.971 59.7069 142.844 59.3937 142.844 59.0222C142.844 58.6507 142.971 58.3429 143.226 58.0988C143.491 57.844 143.824 57.7166 144.227 57.7166C144.619 57.7166 144.942 57.844 145.196 58.0988C145.451 58.3429 145.578 58.6507 145.578 59.0222C145.578 59.3937 145.451 59.7069 145.196 59.9616C144.942 60.2058 144.619 60.3278 144.227 60.3278Z" fill="#A0AEC0"/>
<path d="M168.034 60.3278C167.632 60.3278 167.298 60.2058 167.033 59.9616C166.779 59.7069 166.652 59.3937 166.652 59.0222C166.652 58.6507 166.779 58.3429 167.033 58.0988C167.298 57.844 167.632 57.7166 168.034 57.7166C168.426 57.7166 168.75 57.844 169.004 58.0988C169.258 58.3429 169.385 58.6507 169.385 59.0222C169.385 59.3937 169.258 59.7069 169.004 59.9616C168.75 60.2058 168.426 60.3278 168.034 60.3278Z" fill="#A0AEC0"/>
<path d="M191.842 60.3278C191.439 60.3278 191.105 60.2058 190.841 59.9616C190.586 59.7069 190.459 59.3937 190.459 59.0222C190.459 58.6507 190.586 58.3429 190.841 58.0988C191.105 57.844 191.439 57.7166 191.842 57.7166C192.234 57.7166 192.557 57.844 192.811 58.0988C193.065 58.3429 193.193 58.6507 193.193 59.0222C193.193 59.3937 193.065 59.7069 192.811 59.9616C192.557 60.2058 192.234 60.3278 191.842 60.3278Z" fill="#A0AEC0"/>
<path d="M215.649 60.3278C215.247 60.3278 214.913 60.2058 214.648 59.9616C214.394 59.7069 214.267 59.3937 214.267 59.0222C214.267 58.6507 214.394 58.3429 214.648 58.0988C214.913 57.844 215.247 57.7166 215.649 57.7166C216.041 57.7166 216.364 57.844 216.619 58.0988C216.873 58.3429 217 58.6507 217 59.0222C217 59.3937 216.873 59.7069 216.619 59.9616C216.364 60.2058 216.041 60.3278 215.649 60.3278Z" fill="#A0AEC0"/>
<path d="M1.38263 79.5667C0.980025 79.5667 0.646286 79.4446 0.381415 79.2005C0.127138 78.9458 0 78.6326 0 78.2611C0 77.8896 0.127138 77.5818 0.381415 77.3376C0.646286 77.0829 0.980025 76.9555 1.38263 76.9555C1.77464 76.9555 2.09778 77.0829 2.35206 77.3376C2.60634 77.5818 2.73347 77.8896 2.73347 78.2611C2.73347 78.6326 2.60634 78.9458 2.35206 79.2005C2.09778 79.4446 1.77464 79.5667 1.38263 79.5667Z" fill="#A0AEC0"/>
<path d="M25.19 79.5667C24.7874 79.5667 24.4537 79.4446 24.1888 79.2005C23.9345 78.9458 23.8074 78.6326 23.8074 78.2611C23.8074 77.8896 23.9345 77.5818 24.1888 77.3376C24.4537 77.0829 24.7874 76.9555 25.19 76.9555C25.582 76.9555 25.9052 77.0829 26.1594 77.3376C26.4137 77.5818 26.5409 77.8896 26.5409 78.2611C26.5409 78.6326 26.4137 78.9458 26.1594 79.2005C25.9052 79.4446 25.582 79.5667 25.19 79.5667Z" fill="#A0AEC0"/>
<path d="M48.9974 79.5667C48.5948 79.5667 48.2611 79.4446 47.9962 79.2005C47.7419 78.9458 47.6148 78.6326 47.6148 78.2611C47.6148 77.8896 47.7419 77.5818 47.9962 77.3376C48.2611 77.0829 48.5948 76.9555 48.9974 76.9555C49.3894 76.9555 49.7126 77.0829 49.9668 77.3376C50.2211 77.5818 50.3483 77.8896 50.3483 78.2611C50.3483 78.6326 50.2211 78.9458 49.9668 79.2005C49.7126 79.4446 49.3894 79.5667 48.9974 79.5667Z" fill="#A0AEC0"/>
<path d="M72.8048 79.5667C72.4022 79.5667 72.0685 79.4446 71.8036 79.2005C71.5493 78.9458 71.4222 78.6326 71.4222 78.2611C71.4222 77.8896 71.5493 77.5818 71.8036 77.3376C72.0685 77.0829 72.4022 76.9555 72.8048 76.9555C73.1968 76.9555 73.52 77.0829 73.7742 77.3376C74.0285 77.5818 74.1556 77.8896 74.1556 78.2611C74.1556 78.6326 74.0285 78.9458 73.7742 79.2005C73.52 79.4446 73.1968 79.5667 72.8048 79.5667Z" fill="#A0AEC0"/>
<path d="M96.6122 79.5667C96.2096 79.5667 95.8759 79.4446 95.611 79.2005C95.3567 78.9458 95.2296 78.6326 95.2296 78.2611C95.2296 77.8896 95.3567 77.5818 95.611 77.3376C95.8759 77.0829 96.2096 76.9555 96.6122 76.9555C97.0042 76.9555 97.3274 77.0829 97.5816 77.3376C97.8359 77.5818 97.963 77.8896 97.963 78.2611C97.963 78.6326 97.8359 78.9458 97.5816 79.2005C97.3274 79.4446 97.0042 79.5667 96.6122 79.5667Z" fill="#A0AEC0"/>
<path d="M120.42 79.5667C120.017 79.5667 119.683 79.4446 119.418 79.2005C119.164 78.9458 119.037 78.6326 119.037 78.2611C119.037 77.8896 119.164 77.5818 119.418 77.3376C119.683 77.0829 120.017 76.9555 120.42 76.9555C120.812 76.9555 121.135 77.0829 121.389 77.3376C121.643 77.5818 121.77 77.8896 121.77 78.2611C121.77 78.6326 121.643 78.9458 121.389 79.2005C121.135 79.4446 120.812 79.5667 120.42 79.5667Z" fill="#A0AEC0"/>
<path d="M144.227 79.5667C143.824 79.5667 143.491 79.4446 143.226 79.2005C142.971 78.9458 142.844 78.6326 142.844 78.2611C142.844 77.8896 142.971 77.5818 143.226 77.3376C143.491 77.0829 143.824 76.9555 144.227 76.9555C144.619 76.9555 144.942 77.0829 145.196 77.3376C145.451 77.5818 145.578 77.8896 145.578 78.2611C145.578 78.6326 145.451 78.9458 145.196 79.2005C144.942 79.4446 144.619 79.5667 144.227 79.5667Z" fill="#A0AEC0"/>
<path d="M168.034 79.5667C167.632 79.5667 167.298 79.4446 167.033 79.2005C166.779 78.9458 166.652 78.6326 166.652 78.2611C166.652 77.8896 166.779 77.5818 167.033 77.3376C167.298 77.0829 167.632 76.9555 168.034 76.9555C168.426 76.9555 168.75 77.0829 169.004 77.3376C169.258 77.5818 169.385 77.8896 169.385 78.2611C169.385 78.6326 169.258 78.9458 169.004 79.2005C168.75 79.4446 168.426 79.5667 168.034 79.5667Z" fill="#A0AEC0"/>
<path d="M191.842 79.5667C191.439 79.5667 191.105 79.4446 190.841 79.2005C190.586 78.9458 190.459 78.6326 190.459 78.2611C190.459 77.8896 190.586 77.5818 190.841 77.3376C191.105 77.0829 191.439 76.9555 191.842 76.9555C192.234 76.9555 192.557 77.0829 192.811 77.3376C193.065 77.5818 193.193 77.8896 193.193 78.2611C193.193 78.6326 193.065 78.9458 192.811 79.2005C192.557 79.4446 192.234 79.5667 191.842 79.5667Z" fill="#A0AEC0"/>
<path d="M215.649 79.5667C215.247 79.5667 214.913 79.4446 214.648 79.2005C214.394 78.9458 214.267 78.6326 214.267 78.2611C214.267 77.8896 214.394 77.5818 214.648 77.3376C214.913 77.0829 215.247 76.9555 215.649 76.9555C216.041 76.9555 216.364 77.0829 216.619 77.3376C216.873 77.5818 217 77.8896 217 78.2611C217 78.6326 216.873 78.9458 216.619 79.2005C216.364 79.4446 216.041 79.5667 215.649 79.5667Z" fill="#A0AEC0"/>
<path d="M1.38263 98.8056C0.980025 98.8056 0.646286 98.6835 0.381415 98.4394C0.127138 98.1846 0 97.8715 0 97.5C0 97.1285 0.127138 96.8207 0.381415 96.5765C0.646286 96.3218 0.980025 96.1944 1.38263 96.1944C1.77464 96.1944 2.09778 96.3218 2.35206 96.5765C2.60634 96.8207 2.73347 97.1285 2.73347 97.5C2.73347 97.8715 2.60634 98.1846 2.35206 98.4394C2.09778 98.6835 1.77464 98.8056 1.38263 98.8056Z" fill="#A0AEC0"/>
<path d="M25.19 98.8056C24.7874 98.8056 24.4537 98.6835 24.1888 98.4394C23.9345 98.1846 23.8074 97.8715 23.8074 97.5C23.8074 97.1285 23.9345 96.8207 24.1888 96.5765C24.4537 96.3218 24.7874 96.1944 25.19 96.1944C25.582 96.1944 25.9052 96.3218 26.1594 96.5765C26.4137 96.8207 26.5409 97.1285 26.5409 97.5C26.5409 97.8715 26.4137 98.1846 26.1594 98.4394C25.9052 98.6835 25.582 98.8056 25.19 98.8056Z" fill="#A0AEC0"/>
<path d="M48.9974 98.8056C48.5948 98.8056 48.2611 98.6835 47.9962 98.4394C47.7419 98.1846 47.6148 97.8715 47.6148 97.5C47.6148 97.1285 47.7419 96.8207 47.9962 96.5765C48.2611 96.3218 48.5948 96.1944 48.9974 96.1944C49.3894 96.1944 49.7126 96.3218 49.9668 96.5765C50.2211 96.8207 50.3483 97.1285 50.3483 97.5C50.3483 97.8715 50.2211 98.1846 49.9668 98.4394C49.7126 98.6835 49.3894 98.8056 48.9974 98.8056Z" fill="#A0AEC0"/>
<path d="M72.8048 98.8056C72.4022 98.8056 72.0685 98.6835 71.8036 98.4394C71.5493 98.1846 71.4222 97.8715 71.4222 97.5C71.4222 97.1285 71.5493 96.8207 71.8036 96.5765C72.0685 96.3218 72.4022 96.1944 72.8048 96.1944C73.1968 96.1944 73.52 96.3218 73.7742 96.5765C74.0285 96.8207 74.1556 97.1285 74.1556 97.5C74.1556 97.8715 74.0285 98.1846 73.7742 98.4394C73.52 98.6835 73.1968 98.8056 72.8048 98.8056Z" fill="#A0AEC0"/>
<path d="M96.6122 98.8056C96.2096 98.8056 95.8759 98.6835 95.611 98.4394C95.3567 98.1846 95.2296 97.8715 95.2296 97.5C95.2296 97.1285 95.3567 96.8207 95.611 96.5765C95.8759 96.3218 96.2096 96.1944 96.6122 96.1944C97.0042 96.1944 97.3274 96.3218 97.5816 96.5765C97.8359 96.8207 97.963 97.1285 97.963 97.5C97.963 97.8715 97.8359 98.1846 97.5816 98.4394C97.3274 98.6835 97.0042 98.8056 96.6122 98.8056Z" fill="#A0AEC0"/>
<path d="M120.42 98.8056C120.017 98.8056 119.683 98.6835 119.418 98.4394C119.164 98.1846 119.037 97.8715 119.037 97.5C119.037 97.1285 119.164 96.8207 119.418 96.5765C119.683 96.3218 120.017 96.1944 120.42 96.1944C120.812 96.1944 121.135 96.3218 121.389 96.5765C121.643 96.8207 121.77 97.1285 121.77 97.5C121.77 97.8715 121.643 98.1846 121.389 98.4394C121.135 98.6835 120.812 98.8056 120.42 98.8056Z" fill="#A0AEC0"/>
<path d="M144.227 98.8056C143.824 98.8056 143.491 98.6835 143.226 98.4394C142.971 98.1846 142.844 97.8715 142.844 97.5C142.844 97.1285 142.971 96.8207 143.226 96.5765C143.491 96.3218 143.824 96.1944 144.227 96.1944C144.619 96.1944 144.942 96.3218 145.196 96.5765C145.451 96.8207 145.578 97.1285 145.578 97.5C145.578 97.8715 145.451 98.1846 145.196 98.4394C144.942 98.6835 144.619 98.8056 144.227 98.8056Z" fill="#A0AEC0"/>
<path d="M168.034 98.8056C167.632 98.8056 167.298 98.6835 167.033 98.4394C166.779 98.1846 166.652 97.8715 166.652 97.5C166.652 97.1285 166.779 96.8207 167.033 96.5765C167.298 96.3218 167.632 96.1944 168.034 96.1944C168.426 96.1944 168.75 96.3218 169.004 96.5765C169.258 96.8207 169.385 97.1285 169.385 97.5C169.385 97.8715 169.258 98.1846 169.004 98.4394C168.75 98.6835 168.426 98.8056 168.034 98.8056Z" fill="#A0AEC0"/>
<path d="M191.842 98.8056C191.439 98.8056 191.105 98.6835 190.841 98.4394C190.586 98.1846 190.459 97.8715 190.459 97.5C190.459 97.1285 190.586 96.8207 190.841 96.5765C191.105 96.3218 191.439 96.1944 191.842 96.1944C192.234 96.1944 192.557 96.3218 192.811 96.5765C193.065 96.8207 193.193 97.1285 193.193 97.5C193.193 97.8715 193.065 98.1846 192.811 98.4394C192.557 98.6835 192.234 98.8056 191.842 98.8056Z" fill="#A0AEC0"/>
<path d="M215.649 98.8056C215.247 98.8056 214.913 98.6835 214.648 98.4394C214.394 98.1846 214.267 97.8715 214.267 97.5C214.267 97.1285 214.394 96.8207 214.648 96.5765C214.913 96.3218 215.247 96.1944 215.649 96.1944C216.041 96.1944 216.364 96.3218 216.619 96.5765C216.873 96.8207 217 97.1285 217 97.5C217 97.8715 216.873 98.1846 216.619 98.4394C216.364 98.6835 216.041 98.8056 215.649 98.8056Z" fill="#A0AEC0"/>
<path d="M1.38263 118.044C0.980025 118.044 0.646286 117.922 0.381415 117.678C0.127138 117.424 0 117.11 0 116.739C0 116.367 0.127138 116.06 0.381415 115.815C0.646286 115.561 0.980025 115.433 1.38263 115.433C1.77464 115.433 2.09778 115.561 2.35206 115.815C2.60634 116.06 2.73347 116.367 2.73347 116.739C2.73347 117.11 2.60634 117.424 2.35206 117.678C2.09778 117.922 1.77464 118.044 1.38263 118.044Z" fill="#A0AEC0"/>
<path d="M25.19 118.044C24.7874 118.044 24.4537 117.922 24.1888 117.678C23.9345 117.424 23.8074 117.11 23.8074 116.739C23.8074 116.367 23.9345 116.06 24.1888 115.815C24.4537 115.561 24.7874 115.433 25.19 115.433C25.582 115.433 25.9052 115.561 26.1594 115.815C26.4137 116.06 26.5409 116.367 26.5409 116.739C26.5409 117.11 26.4137 117.424 26.1594 117.678C25.9052 117.922 25.582 118.044 25.19 118.044Z" fill="#A0AEC0"/>
<path d="M48.9974 118.044C48.5948 118.044 48.2611 117.922 47.9962 117.678C47.7419 117.424 47.6148 117.11 47.6148 116.739C47.6148 116.367 47.7419 116.06 47.9962 115.815C48.2611 115.561 48.5948 115.433 48.9974 115.433C49.3894 115.433 49.7126 115.561 49.9668 115.815C50.2211 116.06 50.3483 116.367 50.3483 116.739C50.3483 117.11 50.2211 117.424 49.9668 117.678C49.7126 117.922 49.3894 118.044 48.9974 118.044Z" fill="#A0AEC0"/>
<path d="M72.8048 118.044C72.4022 118.044 72.0685 117.922 71.8036 117.678C71.5493 117.424 71.4222 117.11 71.4222 116.739C71.4222 116.367 71.5493 116.06 71.8036 115.815C72.0685 115.561 72.4022 115.433 72.8048 115.433C73.1968 115.433 73.52 115.561 73.7742 115.815C74.0285 116.06 74.1556 116.367 74.1556 116.739C74.1556 117.11 74.0285 117.424 73.7742 117.678C73.52 117.922 73.1968 118.044 72.8048 118.044Z" fill="#A0AEC0"/>
<path d="M96.6122 118.044C96.2096 118.044 95.8759 117.922 95.611 117.678C95.3567 117.424 95.2296 117.11 95.2296 116.739C95.2296 116.367 95.3567 116.06 95.611 115.815C95.8759 115.561 96.2096 115.433 96.6122 115.433C97.0042 115.433 97.3274 115.561 97.5816 115.815C97.8359 116.06 97.963 116.367 97.963 116.739C97.963 117.11 97.8359 117.424 97.5816 117.678C97.3274 117.922 97.0042 118.044 96.6122 118.044Z" fill="#A0AEC0"/>
<path d="M120.42 118.044C120.017 118.044 119.683 117.922 119.418 117.678C119.164 117.424 119.037 117.11 119.037 116.739C119.037 116.367 119.164 116.06 119.418 115.815C119.683 115.561 120.017 115.433 120.42 115.433C120.812 115.433 121.135 115.561 121.389 115.815C121.643 116.06 121.77 116.367 121.77 116.739C121.77 117.11 121.643 117.424 121.389 117.678C121.135 117.922 120.812 118.044 120.42 118.044Z" fill="#A0AEC0"/>
<path d="M144.227 118.044C143.824 118.044 143.491 117.922 143.226 117.678C142.971 117.424 142.844 117.11 142.844 116.739C142.844 116.367 142.971 116.06 143.226 115.815C143.491 115.561 143.824 115.433 144.227 115.433C144.619 115.433 144.942 115.561 145.196 115.815C145.451 116.06 145.578 116.367 145.578 116.739C145.578 117.11 145.451 117.424 145.196 117.678C144.942 117.922 144.619 118.044 144.227 118.044Z" fill="#A0AEC0"/>
<path d="M168.034 118.044C167.632 118.044 167.298 117.922 167.033 117.678C166.779 117.424 166.652 117.11 166.652 116.739C166.652 116.367 166.779 116.06 167.033 115.815C167.298 115.561 167.632 115.433 168.034 115.433C168.426 115.433 168.75 115.561 169.004 115.815C169.258 116.06 169.385 116.367 169.385 116.739C169.385 117.11 169.258 117.424 169.004 117.678C168.75 117.922 168.426 118.044 168.034 118.044Z" fill="#A0AEC0"/>
<path d="M191.842 118.044C191.439 118.044 191.105 117.922 190.841 117.678C190.586 117.424 190.459 117.11 190.459 116.739C190.459 116.367 190.586 116.06 190.841 115.815C191.105 115.561 191.439 115.433 191.842 115.433C192.234 115.433 192.557 115.561 192.811 115.815C193.065 116.06 193.193 116.367 193.193 116.739C193.193 117.11 193.065 117.424 192.811 117.678C192.557 117.922 192.234 118.044 191.842 118.044Z" fill="#A0AEC0"/>
<path d="M215.649 118.044C215.247 118.044 214.913 117.922 214.648 117.678C214.394 117.424 214.267 117.11 214.267 116.739C214.267 116.367 214.394 116.06 214.648 115.815C214.913 115.561 215.247 115.433 215.649 115.433C216.041 115.433 216.364 115.561 216.619 115.815C216.873 116.06 217 116.367 217 116.739C217 117.11 216.873 117.424 216.619 117.678C216.364 117.922 216.041 118.044 215.649 118.044Z" fill="#A0AEC0"/>
<path d="M1.38263 137.283C0.980025 137.283 0.646286 137.161 0.381415 136.917C0.127138 136.662 0 136.349 0 135.978C0 135.606 0.127138 135.298 0.381415 135.054C0.646286 134.8 0.980025 134.672 1.38263 134.672C1.77464 134.672 2.09778 134.8 2.35206 135.054C2.60634 135.298 2.73347 135.606 2.73347 135.978C2.73347 136.349 2.60634 136.662 2.35206 136.917C2.09778 137.161 1.77464 137.283 1.38263 137.283Z" fill="#A0AEC0"/>
<path d="M25.19 137.283C24.7874 137.283 24.4537 137.161 24.1888 136.917C23.9345 136.662 23.8074 136.349 23.8074 135.978C23.8074 135.606 23.9345 135.298 24.1888 135.054C24.4537 134.8 24.7874 134.672 25.19 134.672C25.582 134.672 25.9052 134.8 26.1594 135.054C26.4137 135.298 26.5409 135.606 26.5409 135.978C26.5409 136.349 26.4137 136.662 26.1594 136.917C25.9052 137.161 25.582 137.283 25.19 137.283Z" fill="#A0AEC0"/>
<path d="M48.9974 137.283C48.5948 137.283 48.2611 137.161 47.9962 136.917C47.7419 136.662 47.6148 136.349 47.6148 135.978C47.6148 135.606 47.7419 135.298 47.9962 135.054C48.2611 134.8 48.5948 134.672 48.9974 134.672C49.3894 134.672 49.7126 134.8 49.9668 135.054C50.2211 135.298 50.3483 135.606 50.3483 135.978C50.3483 136.349 50.2211 136.662 49.9668 136.917C49.7126 137.161 49.3894 137.283 48.9974 137.283Z" fill="#A0AEC0"/>
<path d="M72.8048 137.283C72.4022 137.283 72.0685 137.161 71.8036 136.917C71.5493 136.662 71.4222 136.349 71.4222 135.978C71.4222 135.606 71.5493 135.298 71.8036 135.054C72.0685 134.8 72.4022 134.672 72.8048 134.672C73.1968 134.672 73.52 134.8 73.7742 135.054C74.0285 135.298 74.1556 135.606 74.1556 135.978C74.1556 136.349 74.0285 136.662 73.7742 136.917C73.52 137.161 73.1968 137.283 72.8048 137.283Z" fill="#A0AEC0"/>
<path d="M96.6122 137.283C96.2096 137.283 95.8759 137.161 95.611 136.917C95.3567 136.662 95.2296 136.349 95.2296 135.978C95.2296 135.606 95.3567 135.298 95.611 135.054C95.8759 134.8 96.2096 134.672 96.6122 134.672C97.0042 134.672 97.3274 134.8 97.5816 135.054C97.8359 135.298 97.963 135.606 97.963 135.978C97.963 136.349 97.8359 136.662 97.5816 136.917C97.3274 137.161 97.0042 137.283 96.6122 137.283Z" fill="#A0AEC0"/>
<path d="M120.42 137.283C120.017 137.283 119.683 137.161 119.418 136.917C119.164 136.662 119.037 136.349 119.037 135.978C119.037 135.606 119.164 135.298 119.418 135.054C119.683 134.8 120.017 134.672 120.42 134.672C120.812 134.672 121.135 134.8 121.389 135.054C121.643 135.298 121.77 135.606 121.77 135.978C121.77 136.349 121.643 136.662 121.389 136.917C121.135 137.161 120.812 137.283 120.42 137.283Z" fill="#A0AEC0"/>
<path d="M144.227 137.283C143.824 137.283 143.491 137.161 143.226 136.917C142.971 136.662 142.844 136.349 142.844 135.978C142.844 135.606 142.971 135.298 143.226 135.054C143.491 134.8 143.824 134.672 144.227 134.672C144.619 134.672 144.942 134.8 145.196 135.054C145.451 135.298 145.578 135.606 145.578 135.978C145.578 136.349 145.451 136.662 145.196 136.917C144.942 137.161 144.619 137.283 144.227 137.283Z" fill="#A0AEC0"/>
<path d="M168.034 137.283C167.632 137.283 167.298 137.161 167.033 136.917C166.779 136.662 166.652 136.349 166.652 135.978C166.652 135.606 166.779 135.298 167.033 135.054C167.298 134.8 167.632 134.672 168.034 134.672C168.426 134.672 168.75 134.8 169.004 135.054C169.258 135.298 169.385 135.606 169.385 135.978C169.385 136.349 169.258 136.662 169.004 136.917C168.75 137.161 168.426 137.283 168.034 137.283Z" fill="#A0AEC0"/>
<path d="M191.842 137.283C191.439 137.283 191.105 137.161 190.841 136.917C190.586 136.662 190.459 136.349 190.459 135.978C190.459 135.606 190.586 135.298 190.841 135.054C191.105 134.8 191.439 134.672 191.842 134.672C192.234 134.672 192.557 134.8 192.811 135.054C193.065 135.298 193.193 135.606 193.193 135.978C193.193 136.349 193.065 136.662 192.811 136.917C192.557 137.161 192.234 137.283 191.842 137.283Z" fill="#A0AEC0"/>
<path d="M215.649 137.283C215.247 137.283 214.913 137.161 214.648 136.917C214.394 136.662 214.267 136.349 214.267 135.978C214.267 135.606 214.394 135.298 214.648 135.054C214.913 134.8 215.247 134.672 215.649 134.672C216.041 134.672 216.364 134.8 216.619 135.054C216.873 135.298 217 135.606 217 135.978C217 136.349 216.873 136.662 216.619 136.917C216.364 137.161 216.041 137.283 215.649 137.283Z" fill="#A0AEC0"/>
<path d="M1.38263 156.522C0.980025 156.522 0.646286 156.4 0.381415 156.156C0.127138 155.901 0 155.588 0 155.217C0 154.845 0.127138 154.537 0.381415 154.293C0.646286 154.038 0.980025 153.911 1.38263 153.911C1.77464 153.911 2.09778 154.038 2.35206 154.293C2.60634 154.537 2.73347 154.845 2.73347 155.217C2.73347 155.588 2.60634 155.901 2.35206 156.156C2.09778 156.4 1.77464 156.522 1.38263 156.522Z" fill="#A0AEC0"/>
<path d="M25.19 156.522C24.7874 156.522 24.4537 156.4 24.1888 156.156C23.9345 155.901 23.8074 155.588 23.8074 155.217C23.8074 154.845 23.9345 154.537 24.1888 154.293C24.4537 154.038 24.7874 153.911 25.19 153.911C25.582 153.911 25.9052 154.038 26.1594 154.293C26.4137 154.537 26.5409 154.845 26.5409 155.217C26.5409 155.588 26.4137 155.901 26.1594 156.156C25.9052 156.4 25.582 156.522 25.19 156.522Z" fill="#A0AEC0"/>
<path d="M48.9974 156.522C48.5948 156.522 48.2611 156.4 47.9962 156.156C47.7419 155.901 47.6148 155.588 47.6148 155.217C47.6148 154.845 47.7419 154.537 47.9962 154.293C48.2611 154.038 48.5948 153.911 48.9974 153.911C49.3894 153.911 49.7126 154.038 49.9668 154.293C50.2211 154.537 50.3483 154.845 50.3483 155.217C50.3483 155.588 50.2211 155.901 49.9668 156.156C49.7126 156.4 49.3894 156.522 48.9974 156.522Z" fill="#A0AEC0"/>
<path d="M72.8048 156.522C72.4022 156.522 72.0685 156.4 71.8036 156.156C71.5493 155.901 71.4222 155.588 71.4222 155.217C71.4222 154.845 71.5493 154.537 71.8036 154.293C72.0685 154.038 72.4022 153.911 72.8048 153.911C73.1968 153.911 73.52 154.038 73.7742 154.293C74.0285 154.537 74.1556 154.845 74.1556 155.217C74.1556 155.588 74.0285 155.901 73.7742 156.156C73.52 156.4 73.1968 156.522 72.8048 156.522Z" fill="#A0AEC0"/>
<path d="M96.6122 156.522C96.2096 156.522 95.8759 156.4 95.611 156.156C95.3567 155.901 95.2296 155.588 95.2296 155.217C95.2296 154.845 95.3567 154.537 95.611 154.293C95.8759 154.038 96.2096 153.911 96.6122 153.911C97.0042 153.911 97.3274 154.038 97.5816 154.293C97.8359 154.537 97.963 154.845 97.963 155.217C97.963 155.588 97.8359 155.901 97.5816 156.156C97.3274 156.4 97.0042 156.522 96.6122 156.522Z" fill="#A0AEC0"/>
<path d="M120.42 156.522C120.017 156.522 119.683 156.4 119.418 156.156C119.164 155.901 119.037 155.588 119.037 155.217C119.037 154.845 119.164 154.537 119.418 154.293C119.683 154.038 120.017 153.911 120.42 153.911C120.812 153.911 121.135 154.038 121.389 154.293C121.643 154.537 121.77 154.845 121.77 155.217C121.77 155.588 121.643 155.901 121.389 156.156C121.135 156.4 120.812 156.522 120.42 156.522Z" fill="#A0AEC0"/>
<path d="M144.227 156.522C143.824 156.522 143.491 156.4 143.226 156.156C142.971 155.901 142.844 155.588 142.844 155.217C142.844 154.845 142.971 154.537 143.226 154.293C143.491 154.038 143.824 153.911 144.227 153.911C144.619 153.911 144.942 154.038 145.196 154.293C145.451 154.537 145.578 154.845 145.578 155.217C145.578 155.588 145.451 155.901 145.196 156.156C144.942 156.4 144.619 156.522 144.227 156.522Z" fill="#A0AEC0"/>
<path d="M168.034 156.522C167.632 156.522 167.298 156.4 167.033 156.156C166.779 155.901 166.652 155.588 166.652 155.217C166.652 154.845 166.779 154.537 167.033 154.293C167.298 154.038 167.632 153.911 168.034 153.911C168.426 153.911 168.75 154.038 169.004 154.293C169.258 154.537 169.385 154.845 169.385 155.217C169.385 155.588 169.258 155.901 169.004 156.156C168.75 156.4 168.426 156.522 168.034 156.522Z" fill="#A0AEC0"/>
<path d="M191.842 156.522C191.439 156.522 191.105 156.4 190.841 156.156C190.586 155.901 190.459 155.588 190.459 155.217C190.459 154.845 190.586 154.537 190.841 154.293C191.105 154.038 191.439 153.911 191.842 153.911C192.234 153.911 192.557 154.038 192.811 154.293C193.065 154.537 193.193 154.845 193.193 155.217C193.193 155.588 193.065 155.901 192.811 156.156C192.557 156.4 192.234 156.522 191.842 156.522Z" fill="#A0AEC0"/>
<path d="M215.649 156.522C215.247 156.522 214.913 156.4 214.648 156.156C214.394 155.901 214.267 155.588 214.267 155.217C214.267 154.845 214.394 154.537 214.648 154.293C214.913 154.038 215.247 153.911 215.649 153.911C216.041 153.911 216.364 154.038 216.619 154.293C216.873 154.537 217 154.845 217 155.217C217 155.588 216.873 155.901 216.619 156.156C216.364 156.4 216.041 156.522 215.649 156.522Z" fill="#A0AEC0"/>
<path d="M1.38263 175.761C0.980025 175.761 0.646286 175.639 0.381415 175.395C0.127138 175.14 0 174.827 0 174.456C0 174.084 0.127138 173.776 0.381415 173.532C0.646286 173.277 0.980025 173.15 1.38263 173.15C1.77464 173.15 2.09778 173.277 2.35206 173.532C2.60634 173.776 2.73347 174.084 2.73347 174.456C2.73347 174.827 2.60634 175.14 2.35206 175.395C2.09778 175.639 1.77464 175.761 1.38263 175.761Z" fill="#A0AEC0"/>
<path d="M25.19 175.761C24.7874 175.761 24.4537 175.639 24.1888 175.395C23.9345 175.14 23.8074 174.827 23.8074 174.456C23.8074 174.084 23.9345 173.776 24.1888 173.532C24.4537 173.277 24.7874 173.15 25.19 173.15C25.582 173.15 25.9052 173.277 26.1594 173.532C26.4137 173.776 26.5409 174.084 26.5409 174.456C26.5409 174.827 26.4137 175.14 26.1594 175.395C25.9052 175.639 25.582 175.761 25.19 175.761Z" fill="#A0AEC0"/>
<path d="M48.9974 175.761C48.5948 175.761 48.2611 175.639 47.9962 175.395C47.7419 175.14 47.6148 174.827 47.6148 174.456C47.6148 174.084 47.7419 173.776 47.9962 173.532C48.2611 173.277 48.5948 173.15 48.9974 173.15C49.3894 173.15 49.7126 173.277 49.9668 173.532C50.2211 173.776 50.3483 174.084 50.3483 174.456C50.3483 174.827 50.2211 175.14 49.9668 175.395C49.7126 175.639 49.3894 175.761 48.9974 175.761Z" fill="#A0AEC0"/>
<path d="M72.8048 175.761C72.4022 175.761 72.0685 175.639 71.8036 175.395C71.5493 175.14 71.4222 174.827 71.4222 174.456C71.4222 174.084 71.5493 173.776 71.8036 173.532C72.0685 173.277 72.4022 173.15 72.8048 173.15C73.1968 173.15 73.52 173.277 73.7742 173.532C74.0285 173.776 74.1556 174.084 74.1556 174.456C74.1556 174.827 74.0285 175.14 73.7742 175.395C73.52 175.639 73.1968 175.761 72.8048 175.761Z" fill="#A0AEC0"/>
<path d="M96.6122 175.761C96.2096 175.761 95.8759 175.639 95.611 175.395C95.3567 175.14 95.2296 174.827 95.2296 174.456C95.2296 174.084 95.3567 173.776 95.611 173.532C95.8759 173.277 96.2096 173.15 96.6122 173.15C97.0042 173.15 97.3274 173.277 97.5816 173.532C97.8359 173.776 97.963 174.084 97.963 174.456C97.963 174.827 97.8359 175.14 97.5816 175.395C97.3274 175.639 97.0042 175.761 96.6122 175.761Z" fill="#A0AEC0"/>
<path d="M120.42 175.761C120.017 175.761 119.683 175.639 119.418 175.395C119.164 175.14 119.037 174.827 119.037 174.456C119.037 174.084 119.164 173.776 119.418 173.532C119.683 173.277 120.017 173.15 120.42 173.15C120.812 173.15 121.135 173.277 121.389 173.532C121.643 173.776 121.77 174.084 121.77 174.456C121.77 174.827 121.643 175.14 121.389 175.395C121.135 175.639 120.812 175.761 120.42 175.761Z" fill="#A0AEC0"/>
<path d="M144.227 175.761C143.824 175.761 143.491 175.639 143.226 175.395C142.971 175.14 142.844 174.827 142.844 174.456C142.844 174.084 142.971 173.776 143.226 173.532C143.491 173.277 143.824 173.15 144.227 173.15C144.619 173.15 144.942 173.277 145.196 173.532C145.451 173.776 145.578 174.084 145.578 174.456C145.578 174.827 145.451 175.14 145.196 175.395C144.942 175.639 144.619 175.761 144.227 175.761Z" fill="#A0AEC0"/>
<path d="M168.034 175.761C167.632 175.761 167.298 175.639 167.033 175.395C166.779 175.14 166.652 174.827 166.652 174.456C166.652 174.084 166.779 173.776 167.033 173.532C167.298 173.277 167.632 173.15 168.034 173.15C168.426 173.15 168.75 173.277 169.004 173.532C169.258 173.776 169.385 174.084 169.385 174.456C169.385 174.827 169.258 175.14 169.004 175.395C168.75 175.639 168.426 175.761 168.034 175.761Z" fill="#A0AEC0"/>
<path d="M191.842 175.761C191.439 175.761 191.105 175.639 190.841 175.395C190.586 175.14 190.459 174.827 190.459 174.456C190.459 174.084 190.586 173.776 190.841 173.532C191.105 173.277 191.439 173.15 191.842 173.15C192.234 173.15 192.557 173.277 192.811 173.532C193.065 173.776 193.193 174.084 193.193 174.456C193.193 174.827 193.065 175.14 192.811 175.395C192.557 175.639 192.234 175.761 191.842 175.761Z" fill="#A0AEC0"/>
<path d="M215.649 175.761C215.247 175.761 214.913 175.639 214.648 175.395C214.394 175.14 214.267 174.827 214.267 174.456C214.267 174.084 214.394 173.776 214.648 173.532C214.913 173.277 215.247 173.15 215.649 173.15C216.041 173.15 216.364 173.277 216.619 173.532C216.873 173.776 217 174.084 217 174.456C217 174.827 216.873 175.14 216.619 175.395C216.364 175.639 216.041 175.761 215.649 175.761Z" fill="#A0AEC0"/>
<path d="M1.38263 195C0.980025 195 0.646286 194.878 0.381415 194.634C0.127138 194.379 0 194.066 0 193.694C0 193.323 0.127138 193.015 0.381415 192.771C0.646286 192.516 0.980025 192.389 1.38263 192.389C1.77464 192.389 2.09778 192.516 2.35206 192.771C2.60634 193.015 2.73347 193.323 2.73347 193.694C2.73347 194.066 2.60634 194.379 2.35206 194.634C2.09778 194.878 1.77464 195 1.38263 195Z" fill="#A0AEC0"/>
<path d="M25.19 195C24.7874 195 24.4537 194.878 24.1888 194.634C23.9345 194.379 23.8074 194.066 23.8074 193.694C23.8074 193.323 23.9345 193.015 24.1888 192.771C24.4537 192.516 24.7874 192.389 25.19 192.389C25.582 192.389 25.9052 192.516 26.1594 192.771C26.4137 193.015 26.5409 193.323 26.5409 193.694C26.5409 194.066 26.4137 194.379 26.1594 194.634C25.9052 194.878 25.582 195 25.19 195Z" fill="#A0AEC0"/>
<path d="M48.9974 195C48.5948 195 48.2611 194.878 47.9962 194.634C47.7419 194.379 47.6148 194.066 47.6148 193.694C47.6148 193.323 47.7419 193.015 47.9962 192.771C48.2611 192.516 48.5948 192.389 48.9974 192.389C49.3894 192.389 49.7126 192.516 49.9668 192.771C50.2211 193.015 50.3483 193.323 50.3483 193.694C50.3483 194.066 50.2211 194.379 49.9668 194.634C49.7126 194.878 49.3894 195 48.9974 195Z" fill="#A0AEC0"/>
<path d="M72.8048 195C72.4022 195 72.0685 194.878 71.8036 194.634C71.5493 194.379 71.4222 194.066 71.4222 193.694C71.4222 193.323 71.5493 193.015 71.8036 192.771C72.0685 192.516 72.4022 192.389 72.8048 192.389C73.1968 192.389 73.52 192.516 73.7742 192.771C74.0285 193.015 74.1556 193.323 74.1556 193.694C74.1556 194.066 74.0285 194.379 73.7742 194.634C73.52 194.878 73.1968 195 72.8048 195Z" fill="#A0AEC0"/>
<path d="M96.6122 195C96.2096 195 95.8759 194.878 95.611 194.634C95.3567 194.379 95.2296 194.066 95.2296 193.694C95.2296 193.323 95.3567 193.015 95.611 192.771C95.8759 192.516 96.2096 192.389 96.6122 192.389C97.0042 192.389 97.3274 192.516 97.5816 192.771C97.8359 193.015 97.963 193.323 97.963 193.694C97.963 194.066 97.8359 194.379 97.5816 194.634C97.3274 194.878 97.0042 195 96.6122 195Z" fill="#A0AEC0"/>
<path d="M120.42 195C120.017 195 119.683 194.878 119.418 194.634C119.164 194.379 119.037 194.066 119.037 193.694C119.037 193.323 119.164 193.015 119.418 192.771C119.683 192.516 120.017 192.389 120.42 192.389C120.812 192.389 121.135 192.516 121.389 192.771C121.643 193.015 121.77 193.323 121.77 193.694C121.77 194.066 121.643 194.379 121.389 194.634C121.135 194.878 120.812 195 120.42 195Z" fill="#A0AEC0"/>
<path d="M144.227 195C143.824 195 143.491 194.878 143.226 194.634C142.971 194.379 142.844 194.066 142.844 193.694C142.844 193.323 142.971 193.015 143.226 192.771C143.491 192.516 143.824 192.389 144.227 192.389C144.619 192.389 144.942 192.516 145.196 192.771C145.451 193.015 145.578 193.323 145.578 193.694C145.578 194.066 145.451 194.379 145.196 194.634C144.942 194.878 144.619 195 144.227 195Z" fill="#A0AEC0"/>
<path d="M168.034 195C167.632 195 167.298 194.878 167.033 194.634C166.779 194.379 166.652 194.066 166.652 193.694C166.652 193.323 166.779 193.015 167.033 192.771C167.298 192.516 167.632 192.389 168.034 192.389C168.426 192.389 168.75 192.516 169.004 192.771C169.258 193.015 169.385 193.323 169.385 193.694C169.385 194.066 169.258 194.379 169.004 194.634C168.75 194.878 168.426 195 168.034 195Z" fill="#A0AEC0"/>
<path d="M191.842 195C191.439 195 191.105 194.878 190.841 194.634C190.586 194.379 190.459 194.066 190.459 193.694C190.459 193.323 190.586 193.015 190.841 192.771C191.105 192.516 191.439 192.389 191.842 192.389C192.234 192.389 192.557 192.516 192.811 192.771C193.065 193.015 193.193 193.323 193.193 193.694C193.193 194.066 193.065 194.379 192.811 194.634C192.557 194.878 192.234 195 191.842 195Z" fill="#A0AEC0"/>
<path d="M215.649 195C215.247 195 214.913 194.878 214.648 194.634C214.394 194.379 214.267 194.066 214.267 193.694C214.267 193.323 214.394 193.015 214.648 192.771C214.913 192.516 215.247 192.389 215.649 192.389C216.041 192.389 216.364 192.516 216.619 192.771C216.873 193.015 217 193.323 217 193.694C217 194.066 216.873 194.379 216.619 194.634C216.364 194.878 216.041 195 215.649 195Z" fill="#A0AEC0"/>
</svg>
