<svg viewBox="0 0 155 155" fill="none" xmlns="http://www.w3.org/2000/svg">
<path fill-rule="evenodd" clip-rule="evenodd" d="M128.871 0.835696C128.335 0.300608 127.61 0 126.853 0C124.311 0 123.038 3.07341 124.835 4.87089L150.129 30.1644C151.926 31.962 155 30.6889 155 28.1467C155 27.3899 154.699 26.6641 154.164 26.1289L128.871 0.835696ZM155 2.19085C155 4.14269 152.64 5.12017 151.26 3.74C149.88 2.35983 150.857 0 152.809 0C154.019 0 155 0.980876 155 2.19085ZM155 55.702C155 54.9452 154.699 54.2194 154.164 53.6843L101.315 0.835696C100.78 0.300607 100.054 0 99.2974 0C96.7554 0 95.4823 3.0734 97.2798 4.87088L150.129 57.7198C151.926 59.5174 155 58.2443 155 55.702ZM155 83.2576C155 82.5008 154.699 81.775 154.164 81.2398L73.7594 0.835705C73.2243 0.300614 72.4986 0 71.7418 0C69.1998 0 67.9268 3.0734 69.7243 4.87088L150.129 85.2753C151.926 87.073 155 85.7998 155 83.2576ZM155 110.813C155 110.056 154.699 109.331 154.164 108.795L46.2039 0.835727C45.6688 0.300617 44.943 0 44.1862 0C41.6441 0 40.3711 3.07351 42.1686 4.87104L150.129 112.831C151.926 114.629 155 113.355 155 110.813ZM155 138.369C155 137.612 154.699 136.886 154.164 136.351L18.6486 0.835759C18.1135 0.300629 17.3877 0 16.6309 0C14.0887 0 12.8156 3.07361 14.6132 4.87121L150.129 140.386C151.926 142.184 155 140.911 155 138.369ZM138.369 155C140.911 155 142.184 151.927 140.386 150.129L4.87125 14.6137C3.07364 12.8161 0 14.0893 0 16.6315C0 17.3883 0.300637 18.1141 0.835774 18.6492L136.351 154.164C136.886 154.699 137.612 155 138.369 155ZM110.813 155C113.355 155 114.628 151.927 112.831 150.129L4.87115 42.1692C3.07358 40.3716 0 41.6447 0 44.1869C0 44.9437 0.300631 45.6695 0.835758 46.2046L108.795 154.164C109.331 154.699 110.056 155 110.813 155ZM83.2575 155C85.7995 155 87.0725 151.927 85.2751 150.129L4.87128 69.7247C3.07366 67.9271 0 69.2002 0 71.7424C0 72.4992 0.300638 73.225 0.835778 73.7602L81.2399 154.164C81.775 154.699 82.5007 155 83.2575 155ZM55.7019 155C58.2439 155 59.517 151.927 57.7195 150.129L4.87127 97.2803C3.07366 95.4826 0 96.7558 0 99.298C0 100.055 0.300637 100.781 0.835776 101.316L53.6843 154.164C54.2194 154.699 54.9452 155 55.7019 155ZM28.1462 155C30.6884 155 31.9615 151.926 30.1639 150.129L4.87128 124.836C3.07367 123.038 0 124.311 0 126.854C0 127.61 0.300634 128.336 0.835768 128.871L26.1284 154.164C26.6636 154.699 27.3894 155 28.1462 155ZM2.19077 155C4.1425 155 5.11996 152.64 3.73992 151.26C2.35983 149.88 0 150.857 0 152.809C0 154.019 0.98084 155 2.19077 155Z" fill="#D8D9DB"/>
</svg>
