<svg width="531" height="288" viewBox="0 0 531 288" fill="none" xmlns="http://www.w3.org/2000/svg">
<g opacity="0.4">
<path fill-rule="evenodd" clip-rule="evenodd" d="M415.298 -33C441.458 -3.215 476.553 19.808 516.665 32.417C543.618 40.89 571.45 45.015 599.49 47.005V49.545C571.23 47.555 543.143 43.393 515.92 34.835C474.613 21.845 438.553 -2.055 411.94 -33H415.298Z" fill="white"/>
<path fill-rule="evenodd" clip-rule="evenodd" d="M356.718 -33C357.45 -31.963 358.145 -30.925 358.89 -29.888C398.843 25.703 457.718 64.412 529.128 82.053C552.42 87.8 576.321 91.83 599.49 94.967V97.518C576.138 94.38 552.031 90.315 528.531 84.518C456.52 66.732 397.158 27.68 356.85 -28.41C355.753 -29.935 354.703 -31.462 353.64 -33H356.718Z" fill="white"/>
<path fill-rule="evenodd" clip-rule="evenodd" d="M599.49 153.107C594.083 151.583 588.688 150.08 583.365 148.605C526.615 132.808 467.935 116.475 416.873 84.895C368.558 55 331.815 14.095 296.353 -33H299.515C334.463 13.24 370.743 53.377 418.19 82.735C468.948 114.132 527.458 130.415 584.036 146.163C589.125 147.578 594.303 149.02 599.49 150.473V153.107Z" fill="white"/>
<path fill-rule="evenodd" clip-rule="evenodd" d="M7.48523 27.62C12.4302 6.855 20.2682 -13.603 30.3752 -33H33.1932C22.9033 -13.445 14.9332 7.223 9.92822 28.217C-5.02679 90.925 2.44629 157.808 34.1453 245.075C62.2582 322.445 94.2652 391.183 129.288 449.385C158.06 497.2 193.605 535.908 231.24 576.888C240.97 587.495 251.04 598.458 260.893 609.505C271.12 620.955 281.303 632.783 291.153 644.223C304.935 660.237 319.193 676.777 333.743 692.563C336.563 695.6 339.433 698.8 342.373 702.07C360.965 722.725 382.035 746.125 407.011 754.987C413.845 757.405 420.828 758.65 427.785 758.65H427.798C477.458 758.625 518.083 696.395 533.243 669.638C560.575 621.395 580.74 568.928 599.49 517.232V524.592C581.363 574.275 561.71 624.495 535.428 670.895C516.323 704.61 476.933 761.165 427.798 761.165H427.785C420.548 761.165 413.273 759.895 406.18 757.38C380.593 748.3 359.305 724.643 340.518 703.768C337.575 700.507 334.708 697.322 331.9 694.283C317.313 678.475 303.055 661.91 289.248 645.895C279.41 634.455 269.23 622.64 259.023 611.19C249.185 600.167 239.115 589.205 229.386 578.61C191.665 537.533 156.033 498.737 127.14 450.703C92.0332 392.355 59.9532 323.47 31.7783 245.942C-0.09375 158.188 -7.58978 90.853 7.48523 27.62Z" fill="white"/>
<path fill-rule="evenodd" clip-rule="evenodd" d="M599.49 235.567C597.781 233.467 595.951 231.405 593.948 229.402C570.096 205.598 538.98 191.183 508.89 177.243C504.728 175.3 500.553 173.373 496.415 171.42C444.35 146.882 376.87 111.788 316.653 57.832C306.29 48.542 296.12 38.167 285.368 27.18C263.528 4.902 241.213 -17.862 215.823 -33H220.67C244.84 -17.765 266.213 4.035 287.148 25.41C297.878 36.36 308.023 46.7 318.325 55.94C378.31 109.688 445.583 144.66 497.488 169.125C501.615 171.078 505.778 173.005 509.953 174.935C540.238 188.973 571.548 203.487 595.718 227.607C597.048 228.928 598.293 230.283 599.49 231.66V235.567Z" fill="white"/>
<path fill-rule="evenodd" clip-rule="evenodd" d="M46.1702 40.315C55.4352 12.74 73.3682 -14.97 97.8052 -33H102.176C76.7003 -15.41 58.0352 12.922 48.5512 41.12C31.5952 91.525 34.0483 150.178 56.0333 220.442C76.5052 285.822 108.67 355.183 149.075 421.015C184.658 479 229.75 524.092 286.503 573.958C289.028 576.18 291.64 578.5 294.35 580.893C330.545 612.973 380.118 656.917 428.42 656.917H428.433C436.075 656.917 443.52 655.77 450.553 653.522C498.648 638.118 526.358 589.547 549.148 539.34C570.84 491.547 586.11 440.975 599.49 390.607V400.325C586.661 447.785 571.903 495.295 551.43 540.4C528.408 591.12 500.346 640.23 451.31 655.94C444.033 658.26 436.343 659.445 428.433 659.445C428.42 659.445 428.42 659.445 428.42 659.445C379.165 659.445 329.178 615.145 292.69 582.795C289.98 580.402 287.368 578.085 284.855 575.875C227.92 525.85 182.68 480.598 146.938 422.348C106.423 356.342 74.1603 286.788 53.6403 221.2C31.4733 150.41 29.0312 91.23 46.1702 40.315Z" fill="white"/>
<path fill-rule="evenodd" clip-rule="evenodd" d="M162.198 34.9794C191.14 34.9794 225.553 50.5064 264.48 81.1224C322.475 126.739 384.22 166.267 442.301 202.191C445.793 204.352 449.333 206.514 452.883 208.674C475.785 222.602 499.453 237.019 517.203 257.124C542.105 285.347 548.318 321.944 549.136 347.677C549.355 354.791 549.295 362.569 548.928 371.454C538.503 437.629 522.255 505.134 474.49 549.591C457.315 565.559 437.16 573.664 414.59 573.664H414.578C372.988 573.664 330.265 546.711 301.735 526.434C206.118 458.492 132.985 348.774 95.815 217.524C82.778 171.479 69.523 105.389 104.775 63.1914C120.426 44.4764 139.738 34.9794 162.198 34.9794ZM414.578 576.191H414.59C437.821 576.191 458.548 567.867 476.188 551.446C524.528 506.464 540.92 438.472 551.43 371.699C551.81 362.604 551.87 354.767 551.65 347.589C550.808 321.441 544.485 284.224 519.083 255.439C501.09 235.054 477.238 220.539 454.178 206.501C450.638 204.341 447.11 202.191 443.618 200.032C385.598 164.142 323.928 124.664 266.018 79.1224C226.65 48.1514 191.715 32.4414 162.198 32.4414C138.968 32.4414 118.998 42.2444 102.848 61.5544C66.825 104.682 80.203 171.614 93.398 218.219C130.715 350.019 204.19 460.224 300.283 528.509C329.08 548.981 372.281 576.191 414.578 576.191Z" fill="white"/>
<path opacity="0.7" fill-rule="evenodd" clip-rule="evenodd" d="M488.151 396.531C483.316 426.326 469.231 478.488 429.069 495.798C417.996 500.571 406.096 502.988 393.681 502.988C360.039 502.988 321.684 485.604 279.679 451.303C211.649 395.773 158.816 299.996 145.061 207.296C140.751 178.269 140.569 140.756 164.164 126.791C171.514 122.446 179.996 120.236 189.396 120.236C221.501 120.236 259.526 145.626 284.684 162.423C287.516 164.316 290.214 166.111 292.754 167.784C307.329 177.354 322.391 186.641 336.966 195.613C366.484 213.791 396.989 232.588 424.491 254.501C444.231 270.224 460.637 289.034 476.139 313.668C490.032 335.764 489.177 363.411 488.346 390.146C488.286 392.281 488.211 394.418 488.151 396.531ZM393.681 513.131H393.694C407.461 513.119 420.706 510.434 433.036 505.111C477.764 485.836 493.034 429.611 498.149 397.811L498.209 397.141C498.271 394.931 498.331 392.709 498.404 390.463C499.246 363.511 500.186 332.968 484.646 308.249C468.521 282.613 451.396 263.008 430.741 246.554C402.764 224.264 371.989 205.306 342.229 186.971C327.714 178.023 312.699 168.784 298.259 159.298C295.731 157.639 293.059 155.856 290.251 153.976C264.079 136.508 224.541 110.104 189.396 110.104C178.179 110.104 167.974 112.778 159.061 118.051C136.234 131.564 128.179 162.093 135.099 208.786C149.211 303.854 203.471 402.146 273.344 459.176C317.179 494.979 357.669 513.131 393.681 513.131Z" fill="white"/>
<path fill-rule="evenodd" clip-rule="evenodd" d="M257.414 234.627C282.036 234.627 315.701 251.875 328.387 258.37C358.549 273.822 427.739 317.147 418.631 385.505C409.476 418.928 385.929 425.973 367.789 425.973C350.469 425.985 329.924 419.38 311.407 407.857C287.491 392.978 266.959 371.272 252.032 345.075C244.339 331.575 220.096 284.933 230.924 251.425C234.526 240.28 243.436 234.627 257.414 234.627ZM367.789 428.51C386.809 428.51 411.479 421.138 421.086 386.007C430.449 315.877 360.171 271.81 329.521 256.112C316.704 249.545 282.646 232.1 257.414 232.1C242.216 232.1 232.499 238.337 228.519 250.643C217.374 285.14 242.034 332.612 249.846 346.333C264.981 372.895 285.806 394.917 310.086 410.018C328.984 421.772 350.016 428.51 367.789 428.51Z" fill="white"/>
</g>
</svg>
